<svg xmlns="http://www.w3.org/2000/svg" width="170" height="148.347" viewBox="0 0 170 148.347">
<!--    <defs>-->
<!--        <style>.a{fill:#f8f9fb;}.b{fill:#fdfdfd;}.c{fill:#d8dfe5;}.d{fill:#72818d;}.e{fill:#eceff4;}.f,.g{fill:#28a745;}.f{opacity:0.6;isolation:isolate;}.h{fill:#fff;}-->
<!--    </style>-->
<!--    </defs>-->
    <ellipse class="a" cx="85" cy="23.5" rx="85" ry="23.5" transform="translate(0 101.347)" fill="#f8f9fb"/>
    <path class="b" d="M50,16.347h60.627s18.662,17.533,18.665,17.659L129,116.347a9,9,0,0,1-9,9H50a9,9,0,0,1-9-9v-91A9,9,0,0,1,50,16.347Z" fill=" #fdfdfd"/>
    <path class="c" d="M110.561,16.611l18.395,17.356H110.561Z" fill="#d8dfe5"/>
    <path class="d" d="M111.482,15.436l-.36-.339H50a10.261,10.261,0,0,0-10.25,10.25v91A10.261,10.261,0,0,0,50,126.6h70a10.26,10.26,0,0,0,10.25-10.245l.292-82.375C130.526,33.327,130.526,33.327,111.482,15.436Zm.079,3.5,4.088,3.846,8.288,7.82c.955.9,1.8,1.7,2.489,2.361H111.561Zm16.189,97.407A7.759,7.759,0,0,1,120,124.1H50a7.759,7.759,0,0,1-7.75-7.75v-91A7.759,7.759,0,0,1,50,17.6h59.561v16.37a1,1,0,0,0,1,1h17.477Z" fill="#72818d"/>
    <rect class="e" width="59" height="8" rx="2" transform="translate(55 95.347)" fill="#eceff4"/>
    <rect class="e" width="59" height="8" rx="2" transform="translate(55 78.347)" fill="#eceff4"/>
    <path class="d" d="M34.525,13.569a1.244,1.244,0,0,1-.821-.308l-6.43-5.609a1.25,1.25,0,0,1,1.643-1.884l6.431,5.609a1.25,1.25,0,0,1-.823,2.192Z" fill="#72818d"/>
    <path class="d" d="M31.313,18.06c-.032,0-.063,0-.094,0l-8.769-.648a1.25,1.25,0,1,1,.184-2.493l8.769.648a1.25,1.25,0,0,1-.09,2.5Z" fill="#72818d"/>
    <path class="d" d="M39.118,10.766a1.25,1.25,0,0,1-1.25-1.25V1.25a1.25,1.25,0,0,1,2.5,0V9.516A1.25,1.25,0,0,1,39.118,10.766Z" fill="#72818d"/>
    <circle class="f" cx="18" cy="18" r="18" transform="translate(106 78.348)"  fill="#28a745"/>
    <circle class="g" cx="17.5" cy="17.5" r="17.5" transform="translate(108 79.348)" fill="#28a745"/>
    <path class="h" d="M132.121,95.566h-4.832V90.734a1.25,1.25,0,0,0-2.5,0v4.832h-4.832a1.25,1.25,0,0,0,0,2.5h4.832V102.9a1.25,1.25,0,1,0,2.5,0V98.066h4.832a1.25,1.25,0,0,0,0-2.5Z" fill="#fff"/>
    <path class="d" d="M90.406,52.469a8.382,8.382,0,1,0-11.849-.336q.164.173.336.336a12.439,12.439,0,0,0-6.678,11.025V65.7a.871.871,0,0,0,.87.87h23.13a.871.871,0,0,0,.87-.87h0v-2.21A12.442,12.442,0,0,0,90.407,52.47Zm4.938,12.364H73.954V63.494a10.753,10.753,0,0,1,6.91-10,.87.87,0,0,0,.167-1.542,6.643,6.643,0,1,1,7.236,0,.87.87,0,0,0,.167,1.542,10.753,10.753,0,0,1,6.91,10Z" fill="#72818d"/>
    <path class="d" d="M85.924,47.651a1.8,1.8,0,0,1-2.546,0l0,0a.87.87,0,0,0-1.23,1.23,3.545,3.545,0,0,0,5.01,0,.87.87,0,0,0-1.2-1.26Z" fill="#72818d"/>
</svg>