<svg xmlns="http://www.w3.org/2000/svg" width="160.132" height="129.74" viewBox="0 0 160.132 129.74">
  <g id="Group_6340" data-name="Group 6340" transform="translate(-131.794 -151.47)">
    <g id="chart" transform="translate(131.913 149.873)">
      <path id="Path_355" data-name="Path 355" d="M-10263.608,1780.739c-41.943-60.053-80.071-81.023-126.779-18.111s-19.527,90.7,6.674,91.509S-10221.666,1840.792-10263.608,1780.739Z" transform="translate(10415.645 -1722.832)" fill="#e3e7e9"/>
    </g>
    <g id="Group_5333" data-name="Group 5333" transform="translate(-102.733 -4.389)">
      <g id="Live_stream" data-name="Live stream" transform="translate(281 192)">
        <g id="Group_5331" data-name="Group 5331" transform="translate(2.316 11.58)">
          <path id="Path_1897" data-name="Path 1897" d="M76.632,89.3v9.119L72,99.58V88Z" transform="translate(-72 -88)" fill="#57a4ff"/>
          <path id="Path_1898" data-name="Path 1898" d="M76.632,89.3v9.119L72,99.58V88Z" transform="translate(-72 -88)" fill="#bdc9d4"/>
          <path id="Path_1899" data-name="Path 1899" d="M192,240h18.528v6.948H192Z" transform="translate(-174.63 -217.998)" fill="#bdc9d4"/>
          <path id="Path_1900" data-name="Path 1900" d="M320,264h9.264v3.474H320Z" transform="translate(-284.102 -238.524)" fill="#bdc9d4"/>
        </g>
        <path id="Path_1901" data-name="Path 1901" d="M113.728,78.031,96.286,49.688h7.192a1.158,1.158,0,0,0,1.158-1.158V45.056a1.158,1.158,0,0,0-1.158-1.158H95.372V42.74h11.58a5.8,5.8,0,0,0,5.79-5.79V13.79A5.8,5.8,0,0,0,106.952,8h-44a5.8,5.8,0,0,0-5.79,5.79V36.95a5.8,5.8,0,0,0,5.79,5.79h11.58V48.2L56.172,78.031a1.158,1.158,0,0,0,.986,1.765H61.79a1.158,1.158,0,0,0,.986-.551L80.965,49.688h.511v28.95A1.158,1.158,0,0,0,82.634,79.8h4.632a1.158,1.158,0,0,0,1.158-1.158V49.688h.511l18.189,29.557a1.158,1.158,0,0,0,.986.551h4.632a1.158,1.158,0,0,0,.986-1.765ZM102.32,46.214v1.158H95.372V46.214ZM59.474,21.109l2.316.651V29.1l-2.316.579Zm0,15.841V32.064l3.755-.939A1.158,1.158,0,0,0,64.106,30V20.883a1.158,1.158,0,0,0-.844-1.115L59.474,18.7V13.79a3.478,3.478,0,0,1,3.474-3.474h44a3.478,3.478,0,0,1,3.474,3.474V36.95a3.478,3.478,0,0,1-3.474,3.474h-44A3.478,3.478,0,0,1,59.474,36.95Zm33.582,5.79v4.632H76.844V42.74ZM61.143,77.48H59.23l17.1-27.792h1.913Zm24.965,0H83.792V49.688h2.316Zm22.649,0-17.1-27.792h1.913l17.1,27.792Z" transform="translate(-56 -8)" fill="#72818d"/>
        <path id="Path_1902" data-name="Path 1902" d="M313.158,202.316h9.264a1.158,1.158,0,1,0,0-2.316h-9.264a1.158,1.158,0,1,0,0,2.316Z" transform="translate(-274.944 -172.208)" fill="#72818d"/>
        <path id="Path_1903" data-name="Path 1903" d="M401.158,202.316h1.158a1.158,1.158,0,1,0,0-2.316h-1.158a1.158,1.158,0,0,0,0,2.316Z" transform="translate(-350.206 -172.208)" fill="#72818d"/>
      </g>
      <g id="Group_5334" data-name="Group 5334" transform="translate(301.981 200.834)">
        <circle id="Ellipse_82" data-name="Ellipse 82" cx="8" cy="8" r="8" transform="translate(-0.248 -0.445)" fill="#28a745"/>
        <path id="Path_1914" data-name="Path 1914" d="M2896.486,2092.285v6.8l4.035-3.328Z" transform="translate(-2889.776 -2087.735)" fill="#fff"/>
      </g>
    </g>
  </g>
</svg>
