<svg height="16" viewBox="0 0 16 16" width="16" xmlns="http://www.w3.org/2000/svg">
   
    <rect class="a" height="16" width="16" fill="none"/>
    <g transform="translate(-698.733 -105.061)">
        <path class="b" fill="#929daa"
            d="M702.03,106.724c0-.407,0-.79,0-1.174,0-.224.063-.29.29-.291q.6,0,1.205,0c.192,0,.263.072.265.263,0,.332,0,.663,0,.995v.2h6.052c0-.375,0-.74,0-1.106,0-.31.043-.352.352-.351.361,0,.722,0,1.083,0,.252,0,.32.071.321.322,0,.372,0,.744,0,1.145.093,0,.178,0,.262,0,.325.008.652,0,.976.029a1.2,1.2,0,0,1,1.074,1.189q0,4.13,0,8.261c0,1.013,0,2.026,0,3.039a1.281,1.281,0,0,1-1.312,1.309q-5.843,0-11.685,0a1.319,1.319,0,0,1-1.255-1.342q0-3.537,0-7.074,0-2.035,0-4.07a1.281,1.281,0,0,1,.993-1.287,6.132,6.132,0,0,1,1.024-.054C701.786,106.721,701.9,106.724,702.03,106.724Zm4.794,3.837h-5.308a.734.734,0,0,0-.206.022c-.264.078-.375.255-.375.593q0,2.461,0,4.923c0,.855,0,1.711,0,2.566a.529.529,0,0,0,.592.591l.227,0H709.3c.943,0,1.886,0,2.828,0a.517.517,0,0,0,.542-.354,1.2,1.2,0,0,0,.03-.328q0-1.964,0-3.928,0-1.737,0-3.474c0-.427-.191-.612-.619-.612Z"
            transform="translate(0 0)" />
        <g transform="translate(702.888 112.717)">
            <g transform="translate(0 0)">
                <rect class="b" height="1.442" rx="0.2" width="1.442" />
                <rect class="b" height="1.442" rx="0.2" transform="translate(0 3.062)"
                    width="1.442" />
                <rect class="b" height="1.442" rx="0.2" transform="translate(3.426)"
                    width="1.442" />
                <rect class="b" height="1.442" rx="0.2" transform="translate(3.426 3.062)"
                    width="1.442" />
                <rect class="b" height="1.442" rx="0.2" transform="translate(6.851)"
                    width="1.442" />
                <rect class="b" height="1.442" rx="0.2" transform="translate(6.851 3.062)"
                    width="1.442" />
            </g>
        </g>
    </g>
</svg>