<svg xmlns="http://www.w3.org/2000/svg" width="24.808" height="15.901" viewBox="0 0 24.808 15.901">
  <g id="camera-multicolor" transform="translate(0 -91.918)">
    <path id="Path_1527" data-name="Path 1527" d="M361.163,161.232l-6.609,3.362v5.115l6.609,3.362c.489.252,1.019-.218,1.019-.9V162.135C362.183,161.45,361.653,160.98,361.163,161.232Z" transform="translate(-337.374 -67.283)" fill="#b6d2fe"/>
    <path id="Path_1529" data-name="Path 1529" d="M17.062,107.819a1.491,1.491,0,0,0,1.491-1.491V93.409a1.491,1.491,0,0,0-1.491-1.491H1.491A1.491,1.491,0,0,0,0,93.409v12.919a1.491,1.491,0,0,0,1.491,1.491Z" transform="translate(0 0)" fill="#3b7ad9"/>
  </g>
</svg>
