<svg xmlns="http://www.w3.org/2000/svg" width="24.549" height="20.565" viewBox="0 0 24.549 20.565">
    <g transform="translate(-23.563 -789.753)">
        <g transform="translate(22.473 798.998) rotate(-30)">
            <path class="a" d="M6.33,18.459a2.583,2.583,0,0,1-2.58-2.58,2.441,2.441,0,0,1,.122-.778.573.573,0,0,1,1.087.363,1.327,1.327,0,0,0-.062.414,1.431,1.431,0,0,0,2.824.334.573.573,0,0,1,1.116.261A2.562,2.562,0,0,1,6.33,18.459Z" stroke="#2eb2e8" transform="translate(-1.6 -5.531) "/>
            <path class="a" d="M13.327,13.391a.443.443,0,0,1-.119-.017L.311,9.649A.43.43,0,0,1,0,9.236V6.656a.43.43,0,0,1,.311-.413l12.9-3.726a.43.43,0,0,1,.549.413V12.962a.429.429,0,0,1-.43.43Z" stroke="#2eb2e8" transform="translate(0 -0.32)"/>
            <path class="a" d="M22.573,13.5A.573.573,0,0,1,22,12.928V2.323a.573.573,0,1,1,1.146,0v10.6A.573.573,0,0,1,22.573,13.5Z" stroke="#2eb2e8" transform="translate(-9.389 0)"/>
            <path class="a" d="M.573,12.622A.573.573,0,0,1,0,12.049V8.323a.573.573,0,0,1,1.146,0v3.726A.573.573,0,0,1,.573,12.622Z" stroke="#2eb2e8" transform="translate(0 -2.561)"/>
        </g>
        <path class="b" d="M4027.62,964.919l3.231-4.057" stroke="#2eb2e8" transform="translate(-4033.758 41.904) rotate(-3)"/>
        <path class="b" d="M4029.714,970.2l6.716-3.826" stroke="#2eb2e8" transform="translate(-3989 -173.274)"/>
        <path class="b" d="M4030.944,974.663l5.146-.626" stroke="#2eb2e8" transform="translate(-3989.087 -175.036)"/>
    </g>
</svg>