<svg xmlns="http://www.w3.org/2000/svg" width="24.184" height="15.393" viewBox="0 0 24.184 15.393">
  <g id="truck-multicolor-blue" transform="translate(-15.773 -10.033)">
    <g id="Group_5213" data-name="Group 5213">
      <path id="Path_1799" data-name="Path 1799" d="M29.239,10.033H16.6a.829.829,0,0,0-.825.828V22.407a.828.828,0,0,0,.825.824h1.429v0h.491a3.317,3.317,0,0,1-.056-.549,3.356,3.356,0,1,1,6.713,0,3.317,3.317,0,0,1-.056.549h.494v.006H29.24a.831.831,0,0,0,.824-.825V10.861A.829.829,0,0,0,29.239,10.033Z" fill="#2eb2e8"/>
    </g>
    <g id="Group_5214" data-name="Group 5214">
      <path id="Path_1800" data-name="Path 1800" d="M39.877,18.813a5.118,5.118,0,0,0-5.143-4.32H31.987a.8.8,0,0,0-.813.727.382.382,0,0,1-.011.055v7.167a.369.369,0,0,0,.011.056.805.805,0,0,0,.813.727h.047a3.293,3.293,0,0,1-.056-.547,3.357,3.357,0,1,1,6.713,0,3.4,3.4,0,0,1-.055.547h.5a.8.8,0,0,0,.824-.784V19.362A5.466,5.466,0,0,0,39.877,18.813Z" fill="#2eb2e8"/>
    </g>
    <circle id="Ellipse_75" data-name="Ellipse 75" cx="2.748" cy="2.748" r="2.748" transform="translate(19.071 19.93)" fill="#bde1ef"/>
    <circle id="Ellipse_76" data-name="Ellipse 76" cx="2.748" cy="2.748" r="2.748" transform="translate(32.587 19.93)" fill="#bde1ef"/>
  </g>
</svg>
