<svg height="14.45" viewBox="0 0 20.377 14.45" width="20.377" xmlns="http://www.w3.org/2000/svg">
<!--    <defs>-->
<!--        <style>.a{fill:#c1eab7;}.b{fill:#28a745;}</style>-->
<!--    </defs>-->
    <path class="a" fill="#c1eab7"
        d="M33.568,183.8s-2.748,5.233-2.834,5.407,6.061,1.875,6.061,1.875l5.407,3.488,3.314-4.448,3.575-.916L46.606,183.8Z"
        transform="translate(-29.802 -182.784)" />
    <path class="b" fill="#28a745"
        d="M20.282,69.814l-2.214-4.737A2.428,2.428,0,0,0,15.9,63.744H4.5A2.357,2.357,0,0,0,2.333,65.1L.1,69.838a.675.675,0,0,0-.1.309v5.666a2.387,2.387,0,0,0,2.38,2.38H18a2.387,2.387,0,0,0,2.38-2.38V70.124A.478.478,0,0,0,20.282,69.814Zm-6.023-.428v.048a.69.69,0,0,0-.69.548,3.479,3.479,0,0,1-3.38,2.809,3.528,3.528,0,0,1-3.38-2.809.672.672,0,0,0-.69-.548H1.785L3.547,65.7a1.025,1.025,0,0,1,.928-.6h11.4a1.052,1.052,0,0,1,.928.547l1.762,3.737Z"
        transform="translate(0 -63.744)" />
</svg>