<svg xmlns="http://www.w3.org/2000/svg" width="14.71" height="18.56" viewBox="0 0 14.71 18.56">
    <path class="a" d="M184.9,465.044a2.8,2.8,0,0,0,5.132,0Z" transform="translate(-180.115 -448.159)" fill="#929daa"/>
    <path class="a" d="M198.43,1.773a6.306,6.306,0,0,1,2.153.377V2.068A2.07,2.07,0,0,0,198.516,0h-.171a2.07,2.07,0,0,0-2.068,2.068v.082A6.318,6.318,0,0,1,198.43,1.773Z" transform="translate(-191.075 0)" fill="#929daa"/>
    <path class="a" d="M67.164,91.77H53.572a.554.554,0,0,1-.546-.425.528.528,0,0,1,.291-.6,2.884,2.884,0,0,0,.878-1.193,13.787,13.787,0,0,0,.915-5.456,5.258,5.258,0,0,1,10.517-.021c0,.007,0,.014,0,.021a13.787,13.787,0,0,0,.915,5.456,2.883,2.883,0,0,0,.878,1.193.528.528,0,0,1,.291.6A.554.554,0,0,1,67.164,91.77Zm.261-1.022h0Z" transform="translate(-53.013 -75.974)"  fill="#929daa"/>
</svg>