<svg height="23.787" viewBox="0 0 23.778 23.787" width="23.778" xmlns="http://www.w3.org/2000/svg">

    <path class="a" d="M9.134,0,4.321.02A1.725,1.725,0,0,0,2.815.911L.3,5.467l8.348-.02Z"
        transform="translate(0.007 0.02)" fill="#a7b2bf"/>
    <path class="a" d="M19.593,5.427,17.048.871A1.741,1.741,0,0,0,15.533-.02L10.72,0l.505,5.447Z"
        transform="translate(-0.094 0.02)" fill="#a7b2bf"/>
    <path class="a"
        d="M19.806,9.347A8.434,8.434,0,0,0,8.913,17.4a8.256,8.256,0,0,0,.376,2.486l-7.695.02h-.01A1.566,1.566,0,0,1,.03,18.339L-.01,7.02,9.15,7h1.485l9.16-.03Z"
        transform="translate(0.01 -0.048)" fill="#a7b2bf" />
    <path class="b"
        d="M17.437,11a6.437,6.437,0,1,0,6.437,6.437A6.45,6.45,0,0,0,17.437,11Zm2.723,7.18H18.18V20.16a.743.743,0,1,1-1.485,0V18.18H14.714a.743.743,0,1,1,0-1.485h1.981V14.714a.743.743,0,1,1,1.485,0v1.981H20.16a.743.743,0,1,1,0,1.485Z"
        transform="translate(-0.097 -0.087)" fill="#28a745" />
</svg>