<svg height="16.822" viewBox="0 0 17.422 16.822" width="17.422" xmlns="http://www.w3.org/2000/svg">
    <path class="a" fill="#28a745"
        d="M7.51,9.586C3.362,9.586,0,12.6,0,16.319a6.216,6.216,0,0,0,1.242,3.708c-.1,1.229-.4,2.959-1.242,3.8a13.524,13.524,0,0,0,4.319-1.415,8.209,8.209,0,0,0,3.191.638c4.147,0,7.51-3.014,7.51-6.733S11.657,9.586,7.51,9.586Z"
        transform="translate(0 -7.007)" />
    <path class="b" fill="#c1eab7"
        d="M24.706,7.733C24.706,4.014,21.344,1,17.2,1a7.615,7.615,0,0,0-6.785,3.846,8.07,8.07,0,0,1,4.382-1.267c4.147,0,7.51,3.014,7.51,6.733A6.233,6.233,0,0,1,20.97,14.14a14.654,14.654,0,0,0,3.736,1.1c-.843-.843-1.139-2.573-1.242-3.8A6.216,6.216,0,0,0,24.706,7.733Z"
        transform="translate(-7.284 -1)" />
    <circle class="c" cx="0.866" cy="0.866" r="0.866" transform="translate(3.44 8.415)" fill="#fff" />
    <circle class="c" cx="0.866" cy="0.866" r="0.866" transform="translate(6.903 8.415)" fill="#e8ebf1"/>
    <circle class="c" cx="0.866" cy="0.866" r="0.866" transform="translate(10.366 8.415)" fill="#fff" />
</svg>