<svg xmlns="http://www.w3.org/2000/svg" width="50" height="50" viewBox="0 0 50 50">
<!--    <defs>-->
<!--        <style>.a{fill:#4eaaff;}.b{fill:none;}.c{fill:#fff;}</style>-->
<!--    </defs>-->
    <g transform="translate(-28 -192)">
        <rect class="a" width="50" height="50" rx="20" transform="translate(28 192)" fill="#4eaaff"/>
        <g transform="translate(-2.472 -2.472)">
            <g transform="translate(41.09 205.09)">
                <rect class="b" width="28" height="28" transform="translate(0.382 0.383)" fill="none"/>
                <g transform="translate(5.573 2.419)">
                    <path class="c"
                        d="M8,4.515h8.042l1.736-1.389a1.735,1.735,0,0,0,.562-1.951A1.732,1.732,0,0,0,16.686,0H7.356A1.733,1.733,0,0,0,5.7,1.175a1.734,1.734,0,0,0,.561,1.95Z"
                        transform="translate(-2.991 0)" fill="#fff"/>
                    <path class="c"
                        d="M16.188,6H7.871A17.428,17.428,0,0,0,3,17.287c0,3.37,1.784,6.772,5.769,6.772h6.772c3.4,0,5.518-2.6,5.518-6.772A17.428,17.428,0,0,0,16.188,6Zm-4.54,8.277h.762a2.129,2.129,0,0,1,.371,4.226v.79a.752.752,0,0,1-1.5,0v-.751h-1a.752.752,0,1,1,0-1.5h2.137a.627.627,0,0,0,0-1.254h-.762a2.129,2.129,0,0,1-.371-4.226v-.791a.752.752,0,1,1,1.5,0v.752h1a.752.752,0,0,1,0,1.5H11.648a.627.627,0,0,0,0,1.254Z"
                        transform="translate(-3 0.02)" fill="#fff" />
                </g>
            </g>
        </g>
    </g>
</svg>