<svg xmlns="http://www.w3.org/2000/svg" width="260.887" height="77.215"
    viewBox="0 0 260.887 77.215">
    <defs>
        <style>
            .a{fill:#1e8a2c;opacity:0.146;mix-blend-mode:multiply;isolation:isolate;}.b{fill:#d7dee2;}.c{fill:#8e97a2;}.d{fill:url(#a);}.e{fill:url(#b);}
        </style>
        <linearGradient id="a" x1="0.946" y1="-0.249" x2="-0.142" y2="0.68"
            gradientUnits="objectBoundingBox">
            <stop offset="0" stop-color="#f0f0f0" />
            <stop offset="1" stop-color="#c2c7ce" />
        </linearGradient>
        <linearGradient id="b" x1="0.977" y1="0.478" x2="0.11" y2="0.805"
            gradientUnits="objectBoundingBox">
            <stop offset="0" stop-color="#a2acb7" />
            <stop offset="1" stop-color="#c8ced6" />
        </linearGradient>
    </defs>
    <g transform="translate(-22.763 -16.91)">
        <path class="a"
            d="M-765.062,110.788c-2.253,0-49.834,13.382-51.286,21.134s1.774,12.934,20.9,12.978,62.8-7.212,95.5-3.384,114.731,6.237,126.656,3.384,24.446-10.634,13.017-29.643S-765.062,110.788-765.062,110.788Z"
            transform="translate(839.416 -52.026)" />
        <path class="b"
            d="M281.983,46.91v3c0,16.57-12.536,30-28,30H55.154c-11.071,0-20.639-6.88-25.185-16.86v-.01A31.642,31.642,0,0,1,27.15,49.91v-3a31.562,31.562,0,0,1,.439-5.27C29.9,27.58,41.366,16.91,55.154,16.91H253.979A26.353,26.353,0,0,1,268,20.95,30.364,30.364,0,0,1,281.983,46.91Z" />
        <g transform="translate(117.649 38.07)">
            <path class="c"
                d="M144.31,54.265a9.247,9.247,0,0,0,1.2-1.87,9.967,9.967,0,0,0,.744-2.159,11.042,11.042,0,0,0,.256-2.4,10.454,10.454,0,0,0-.7-3.853,9.054,9.054,0,0,0-5.093-5.165,11.06,11.06,0,0,0-7.981,0,9.342,9.342,0,0,0-3.1,2.054,9.136,9.136,0,0,0-2,3.1,10.983,10.983,0,0,0,0,7.735,9.15,9.15,0,0,0,2,3.106,9.316,9.316,0,0,0,3.1,2.054,10.409,10.409,0,0,0,3.99.744,11.532,11.532,0,0,0,2.349-.236l2.276,2.53a2.89,2.89,0,0,0,1.187.781,4.365,4.365,0,0,0,1.363.2h4.224l-4.988-5.448A8.829,8.829,0,0,0,144.31,54.265Zm-2.984-4.02a4.876,4.876,0,0,1-.98,1.742,4.182,4.182,0,0,1-1.532,1.078,5.951,5.951,0,0,1-4.185,0,4.185,4.185,0,0,1-1.538-1.079,4.876,4.876,0,0,1-.979-1.741,8.461,8.461,0,0,1,0-4.81,4.952,4.952,0,0,1,.98-1.751,4.178,4.178,0,0,1,1.536-1.082,5.947,5.947,0,0,1,4.186,0,4.175,4.175,0,0,1,1.531,1.083,4.947,4.947,0,0,1,.981,1.751,8.461,8.461,0,0,1,0,4.81Z"
                transform="translate(-126.925 -38.07)" />
            <path class="c"
                d="M160.825,49.57a5.275,5.275,0,0,1-.238,1.645,3.324,3.324,0,0,1-.661,1.186,2.849,2.849,0,0,1-1.047.741,4.072,4.072,0,0,1-2.9,0,2.876,2.876,0,0,1-1.045-.74,3.324,3.324,0,0,1-.661-1.186,5.284,5.284,0,0,1-.238-1.645v-11.3h-4.75v11.3a8.9,8.9,0,0,0,.565,3.211,7.208,7.208,0,0,0,4.208,4.23,9.838,9.838,0,0,0,6.75,0,7.465,7.465,0,0,0,2.571-1.676,7.373,7.373,0,0,0,1.629-2.554,8.9,8.9,0,0,0,.565-3.211v-11.3h-4.75Z"
                transform="translate(-126.925 -38.07)" />
            <path class="c"
                d="M174.058,38.271,166.58,57.408h3.67a1.694,1.694,0,0,0,1.1-.369,1.941,1.941,0,0,0,.591-.789l1.108-3.129h6.517l1.116,3.153a1.887,1.887,0,0,0,.618.8,1.768,1.768,0,0,0,1.094.333h3.645l-7.465-19.137Zm.274,11.25,1.708-4.84c.088-.222.181-.473.276-.753.093.269.181.507.262.709l1.728,4.884Z"
                transform="translate(-126.925 -38.07)" />
            <path class="c"
                d="M199.7,38.271a1.622,1.622,0,0,0-1.1.386,2.353,2.353,0,0,0-.566.709l-2.951,5.715c-.182.356-.346.693-.494,1.015q-.234-.476-.517-1.018l-2.968-5.7a2.172,2.172,0,0,0-.61-.77,1.716,1.716,0,0,0-1.091-.338h-4.175l6.963,11.8v7.338h4.75V50.07l6.963-11.8Z"
                transform="translate(-126.925 -38.07)" />
        </g>
        <path class="d"
            d="M89.89,16.91C49.41,24.06,33.7,34.39,27.62,41.64A29.987,29.987,0,0,1,57.15,16.91Z" />
        <path class="e"
            d="M281.983,46.91v3c0,16.57-12.526,30-27.981,30H55.334c-11.062,0-20.622-6.88-25.164-16.86,6.986,4.91,24.25,10.94,66.913,9.76,70.252-1.94,91.573,1.01,107.112,1.21s45.068.74,58.6-12.41c10.689-10.4,12.284-26.21,5.214-40.66A30.37,30.37,0,0,1,281.983,46.91Z" />
    </g>
</svg>