<svg xmlns="http://www.w3.org/2000/svg" width="12" height="12" viewBox="0 0 12 12"><defs><style>.a{fill:#a7b2bf;}</style></defs><path class="a" d="M6.582,44.226a.183.183,0,0,0-.192.043L4.025,46.634a1.391,1.391,0,0,1-1.967-1.967L4.423,42.3a.184.184,0,0,0-.112-.313l-1.651-.164a.18.18,0,0,0-.148.053L.89,43.5a3.043,3.043,0,0,0,4.3,4.3l1.621-1.621a.184.184,0,0,0,.053-.148L6.7,44.381A.184.184,0,0,0,6.582,44.226Z" transform="translate(0 -36.692)"/><path class="a" d="M47.8.89a3.046,3.046,0,0,0-4.3,0L41.877,2.511a.184.184,0,0,0-.053.148l.164,1.651a.184.184,0,0,0,.313.112l2.365-2.365a1.391,1.391,0,0,1,1.968,1.967L44.269,6.39a.184.184,0,0,0,.112.313l1.651.164h.018a.184.184,0,0,0,.13-.054L47.8,5.193A3.046,3.046,0,0,0,47.8.89Z" transform="translate(-36.691)"/><path class="a" d="M7.525,30.838h0L9.515,30.8a.184.184,0,0,0,.048-.361l-1.908-.556a.184.184,0,0,0-.234.152l-.079.591a.184.184,0,0,0,.182.208Z" transform="translate(-6.44 -26.212)"/><path class="a" d="M30.445,9.564a.184.184,0,0,0,.177.133l.025,0a.184.184,0,0,0,.16-.179l.034-1.987a.184.184,0,0,0-.209-.185l-.591.08a.184.184,0,0,0-.152.234Z" transform="translate(-26.215 -6.44)"/><path class="a" d="M73.428,60.1l-1.987.034a.184.184,0,0,0-.048.361l1.908.556a.19.19,0,0,0,.052.007.184.184,0,0,0,.182-.16l.079-.591a.183.183,0,0,0-.045-.147A.182.182,0,0,0,73.428,60.1Z" transform="translate(-62.516 -52.722)"/><path class="a" d="M60.492,71.393a.182.182,0,0,0-.2-.131.185.185,0,0,0-.16.179L60.1,73.428a.184.184,0,0,0,.184.187l.025,0,.591-.079a.184.184,0,0,0,.153-.234Z" transform="translate(-52.723 -62.516)"/></svg>