<svg xmlns="http://www.w3.org/2000/svg" xmlns:xlink="http://www.w3.org/1999/xlink" width="158" height="158" viewBox="0 0 158 158">
  <defs>
    <linearGradient id="linear-gradient" x1="0.281" y1="0.333" x2="1" y2="0.889" gradientUnits="objectBoundingBox">
      <stop offset="0" stop-color="#b3b6b9" stop-opacity="0"/>
      <stop offset="1" stop-color="#96aec6" stop-opacity="0.212"/>
    </linearGradient>
  </defs>
  <g id="Group_7358" data-name="Group 7358" transform="translate(-229 -464)">
    <rect id="Rectangle_2203" data-name="Rectangle 2203" width="158" height="158" transform="translate(229 464)" fill="none"/>
    <g id="Group_7357" data-name="Group 7357" transform="translate(223.854 300)" opacity="0.7">
      <path id="Path_2494" data-name="Path 2494" d="M84.345,264.131,8.209,250.49,22,217.114l55.818,5.024Z" transform="translate(0 14.543)" fill="url(#linear-gradient)"/>
      <g id="_685387" data-name="685387" transform="translate(49.145 207)">
        <path id="Path_2489" data-name="Path 2489" d="M39.78,0,57.233,8.982l17.526,8.909L57.233,26.874,39.78,35.856,22.326,26.874,4.8,17.891,22.326,8.982Z" transform="translate(-4.8)" fill="#e7edf4"/>
        <path id="Path_2490" data-name="Path 2490" d="M95.14,44.8l34.98,17.891L126.98,64.3,92,46.407Z" transform="translate(-76.08 -36.621)" fill="#f2f6fa"/>
        <g id="Group_7353" data-name="Group 7353" transform="translate(0 17.891)">
          <path id="Path_2491" data-name="Path 2491" d="M231.38,133.929V98l-17.526,8.982L196.4,115.964V151.82Z" transform="translate(-161.42 -98)" fill="#d3dbe3"/>
          <path id="Path_2492" data-name="Path 2492" d="M267.007,163.263l8.179-4.016a2.254,2.254,0,0,1,3.14,1.022,2.8,2.8,0,0,1-1.461,3.286l-8.106,4.016a2.254,2.254,0,0,1-3.14-1.022A2.647,2.647,0,0,1,267.007,163.263Z" transform="translate(-217.86 -147.854)" fill="#a3adbc"/>
          <path id="Path_2493" data-name="Path 2493" d="M39.78,151.82V115.964l-17.453-8.982L4.8,98v35.929Z" transform="translate(-4.8 -98)" fill="#bbc3ce"/>
        </g>
      </g>
    </g>
  </g>
</svg>
