<svg xmlns="http://www.w3.org/2000/svg" width="91.615" height="74.228 " viewBox="0 0 91.615 74.228">
<!--    <defs>-->
<!--        <style>.a{fill:#f8f9fb;}.b,.d{fill:#e3e9ee;}.c,.f{fill:#90a2b1;}.e,.f{stroke:none;}</style>-->
<!--    </defs>-->
    <g transform="translate(0.119 -1.597)">
        <path class="a"
            d="M-10328.713,1756.645c-24-34.358-45.81-46.356-72.532-10.362s-11.173,51.894,3.817,52.355S-10304.716,1791-10328.713,1756.645Z"
            transform="translate(10415.645 -1722.832)" fill='#f8f9fb'/>
        <g transform="translate(18.828 -50.629)">
            <path class="b"
                d="M52.874,99.062H40.583c0,2.037-2.752,3.687-6.146,3.687s-6.146-1.651-6.146-3.687H16L23.375,88H45.5Z"
                transform="translate(-7.385 -7.385)" fill='#e3e9ee'/>
            <g transform="translate(8 80)">
                <path class="c"
                    d="M46,91.336h0l0,0L38.625,80.274A.615.615,0,0,0,38.114,80H15.989a.615.615,0,0,0-.511.274L8.106,91.332l0,0h0a.612.612,0,0,0-.1.341v14.75a.615.615,0,0,0,.615.615H45.489a.615.615,0,0,0,.615-.615V91.677A.612.612,0,0,0,46,91.336ZM16.318,81.229H37.785l6.555,9.833H33.2a.615.615,0,0,0-.615.615c0,1.666-2.533,3.073-5.531,3.073s-5.531-1.407-5.531-3.073a.615.615,0,0,0-.615-.615H9.763Zm28.556,24.583H9.229V92.291H20.357c.455,2.111,3.233,3.687,6.695,3.687s6.239-1.576,6.695-3.687H44.874Z"
                    transform="translate(-8 -80)" fill='#90a2b1'/>
                <g class="d" transform="translate(12 19)">
                    <path class="e" fill='#90a2b1'  stroke='none'
                        d="M 13 2.5 L 1 2.5 C 0.7243000268936157 2.5 0.5 2.275700092315674 0.5 2 L 0.5 1 C 0.5 0.7243000268936157 0.7243000268936157 0.5 1 0.5 L 13 0.5 C 13.27569961547852 0.5 13.5 0.7243000268936157 13.5 1 L 13.5 2 C 13.5 2.275700092315674 13.27569961547852 2.5 13 2.5 Z" />
                    <path class="f" fill='#90a2b1'
                        d="M 1 1 L 1 2 L 13 2 L 13 1 L 1 1 M 1 0 L 13 0 C 13.55228042602539 0 14 0.4477200508117676 14 1 L 14 2 C 14 2.552279949188232 13.55228042602539 3 13 3 L 1 3 C 0.4477100372314453 3 0 2.552279949188232 0 2 L 0 1 C 0 0.4477200508117676 0.4477100372314453 0 1 0 Z"
                        stroke='none'
                    />
                </g>
            </g>
        </g>
    </g>
</svg>