<svg xmlns="http://www.w3.org/2000/svg" width="22.892" height="15.701" viewBox="0 0 22.892 15.701">
  <g id="envelope-multicolor" transform="translate(0 -56.82)">
    <g id="Group_4114" data-name="Group 4114" transform="translate(0 56.82)">
      <path id="Path_301" data-name="Path 301" d="M2.2,60.76q.434.328,2.619,1.951t3.347,2.5q.128.1.543.418t.69.52q.275.2.664.445a3.743,3.743,0,0,0,.735.369,1.9,1.9,0,0,0,.639.123h.026a1.9,1.9,0,0,0,.639-.123,3.746,3.746,0,0,0,.735-.369q.39-.247.664-.445t.69-.52q.415-.322.543-.418l5.978-4.449a6.309,6.309,0,0,0,1.558-1.684,3.793,3.793,0,0,0,.626-2.067,2.174,2.174,0,0,0-.607-1.547,1.911,1.911,0,0,0-1.437-.643H2.044a1.775,1.775,0,0,0-1.514.712A2.9,2.9,0,0,0,0,57.311,3.33,3.33,0,0,0,.7,59.18,6.574,6.574,0,0,0,2.2,60.76Z" transform="translate(0 -54.82)" fill="#c1eab7"/>
      <path id="Path_302" data-name="Path 302" d="M21.615,185.7q-4.19,3.21-6.362,4.989-.728.607-1.182.947a7.022,7.022,0,0,1-1.207.694,3.318,3.318,0,0,1-1.405.354h-.026a3.319,3.319,0,0,1-1.405-.354,7.026,7.026,0,0,1-1.207-.694q-.453-.34-1.182-.947Q5.915,189.253,1.29,185.7A7.084,7.084,0,0,1,0,184.437v11.482a2.383,2.383,0,0,0,.6,1.634,1.861,1.861,0,0,0,1.444.68h18.8a1.861,1.861,0,0,0,1.443-.68,2.383,2.383,0,0,0,.6-1.634V184.437A7.39,7.39,0,0,1,21.615,185.7Z" transform="translate(0 -182.531)" fill="#28a745"/>
    </g>
  </g>
</svg>
