<svg xmlns="http://www.w3.org/2000/svg" width="170" height="129.883" viewBox="0 0 170 129.883">
<!--    <defs>-->
<!--        <style>-->
<!--            .a{fill:#f8f9fb;}.b{fill:#fdfdfd;}.c{fill:#72818d;}.d{fill:#72818d;}.e,.f{fill:#eb3b5b;}.e{opacity:0.6;isolation:isolate;}.g{fill:#fff;}-->
<!--        </style>-->
<!--    </defs>-->
    <g transform="translate(0 0.015)">
        <ellipse class="a" cx="85" cy="23.5" rx="85" ry="23.5" transform="translate(0 82.868)"  fill="#f8f9fb"/>
        <path class="b"
            d="M63.73,34.68c.07.42.17.84.28,1.25h39.08c.11-.41.21-.83.29-1.25Zm0,0c.07.42.17.84.28,1.25h39.08c.11-.41.21-.83.29-1.25Zm55.08,0H49.35a10,10,0,0,0-10,10V96.41a10,10,0,0,0,10,10h69.46a10,10,0,0,0,10-10V44.68A10,10,0,0,0,118.81,34.68Zm-55.08,0c.07.42.17.84.28,1.25h39.08c.11-.41.21-.83.29-1.25Zm0,0c.07.42.17.84.28,1.25h39.08c.11-.41.21-.83.29-1.25ZM52.45,35.93h62.2m-52.7,0h43.2" fill="#fdfdfd"/>
        <path class="c"
            d="M118.81,33.43h-3.85a30.567,30.567,0,0,0-9.13-24.36A31.247,31.247,0,0,0,95.81,2.43a31.96,31.96,0,0,0-24.52,0A31.247,31.247,0,0,0,61.27,9.07a30.6,30.6,0,0,0-9.13,24.36H49.35A11.261,11.261,0,0,0,38.1,44.68V96.41a11.261,11.261,0,0,0,11.25,11.25h69.46a11.267,11.267,0,0,0,11.25-11.25V44.68A11.267,11.267,0,0,0,118.81,33.43ZM56.35,19.71a28.619,28.619,0,0,1,6.32-9.21,29.381,29.381,0,0,1,9.38-6.22,29.96,29.96,0,0,1,23,0,29.381,29.381,0,0,1,9.38,6.22,28.569,28.569,0,0,1,8.52,22.93h-7.36A21.039,21.039,0,0,0,104,22.6a21.421,21.421,0,0,0-4.77-6.83,21.846,21.846,0,0,0-7.05-4.61A22.547,22.547,0,0,0,83.6,9.47h-.1a22.547,22.547,0,0,0-8.58,1.69,21.983,21.983,0,0,0-7.05,4.6,21.347,21.347,0,0,0-4.77,6.85,20.971,20.971,0,0,0-1.59,10.82H54.15A28.648,28.648,0,0,1,56.35,19.71Zm7.17,13.72a19.083,19.083,0,0,1,1.42-10.02,19.288,19.288,0,0,1,4.32-6.21,20.137,20.137,0,0,1,6.42-4.19,20.566,20.566,0,0,1,7.82-1.54h.1a20.529,20.529,0,0,1,7.82,1.54,20.137,20.137,0,0,1,6.42,4.19,19.289,19.289,0,0,1,4.32,6.21,18.885,18.885,0,0,1,1.42,10.02Zm64.04,62.98a8.766,8.766,0,0,1-8.75,8.75H49.35a8.76,8.76,0,0,1-8.75-8.75V44.68a8.753,8.753,0,0,1,8.75-8.75h69.46a8.76,8.76,0,0,1,8.75,8.75Z" fill="#72818d"/>
        <path class="d"
            d="M80.244,79.686V69.1a8.67,8.67,0,0,1-5.113-7.848,8.951,8.951,0,0,1,17.894,0,8.711,8.711,0,0,1-5.964,8.189V79.686a3.408,3.408,0,1,1-6.817,0Z" fill="#d8dfe5"/>
        <path class="c"
            d="M93.96,60.26v-.01c-.04-.34-.09-.67-.16-.99s-.17-.65-.27-.97a9.9,9.9,0,0,0-5.96-6.13,10.017,10.017,0,0,0-3.48-.59,9.827,9.827,0,0,0-3.81.72h-.01a9.827,9.827,0,0,0-5.73,6.32,8.238,8.238,0,0,0-.24.98c-.06.33-.11.66-.14,1-.02.22-.03.44-.03.67a9.676,9.676,0,0,0,5.11,8.46v9.97a4.41,4.41,0,0,0,8.82,0V70.14a9.742,9.742,0,0,0,5.97-8.9C94.02,60.91,94,60.58,93.96,60.26Zm-7.9,8.46V79.69a2.41,2.41,0,0,1-4.82,0V68.46l-.59-.27a7.692,7.692,0,0,1-4.52-6.92.66.66,0,0,1,.01-.14,5.669,5.669,0,0,1,.1-1.01,6.335,6.335,0,0,1,.22-.98,7.849,7.849,0,0,1,7.52-5.57h.23a7.86,7.86,0,0,1,7.41,5.31,6.3,6.3,0,0,1,.26.97,6.806,6.806,0,0,1,.13,1.01c.01.13.02.26.02.39a7.732,7.732,0,0,1-5.28,7.25Z" fill="#72818d"/>
        <path class="c"
            d="M31.86,33.781a1.246,1.246,0,0,1-.851-.335l-6.581-6.114a1.25,1.25,0,1,1,1.7-1.832l6.581,6.114a1.251,1.251,0,0,1-.851,2.167Z" fill="#72818d"/>
        <path class="c"
            d="M36.21,29.917a1.25,1.25,0,0,1-1.229-1.028l-1.649-9.111a1.25,1.25,0,1,1,2.461-.445l1.649,9.111A1.25,1.25,0,0,1,36.434,29.9,1.219,1.219,0,0,1,36.21,29.917Z" fill="#72818d"/>
        <path class="c"
            d="M20.777,39.813a1.251,1.251,0,0,1-.13-2.495L29.3,36.4a1.25,1.25,0,1,1,.263,2.487l-8.657.914A1.185,1.185,0,0,1,20.777,39.813Z" fill="#72818d"/>
        <circle class="e" cx="18" cy="18" r="18" transform="translate(106 79.869)" opacity="0.6" isolation="isolate"/>
        <circle class="f" cx="17.5" cy="17.5" r="17.5" transform="translate(108 80.869)" fill="#eb3b5b"/>
        <path class="g"
            d="M132.82,93.109l-2.153-2.153-5.417,5.417-5.417-5.417-2.153,2.153,5.417,5.417-5.417,5.417,2.153,2.153,5.417-5.417,5.418,5.417,2.153-2.153L127.4,98.526Z" fill="#fff"/>
    </g>
</svg>