<svg id="facebook-multicolor" xmlns="http://www.w3.org/2000/svg" width="19.516" height="19.516" viewBox="0 0 19.516 19.516">
  <path id="Path_311" data-name="Path 311" d="M18.439,0H1.076A1.077,1.077,0,0,0,0,1.077V18.44a1.077,1.077,0,0,0,1.077,1.076H18.439a1.077,1.077,0,0,0,1.077-1.077h0V1.076A1.077,1.077,0,0,0,18.439,0Zm0,0" transform="translate(0 0)" fill="#3b7ad9"/>
  <path id="Path_312" data-name="Path 312" d="M212.584,93.893V86.346h2.544l.381-2.954h-2.926V81.51c0-.853.237-1.435,1.461-1.435H215.6V77.44a20.847,20.847,0,0,0-2.273-.116,3.549,3.549,0,0,0-3.788,3.893v2.174H207v2.954h2.535v7.547Zm0,0" transform="translate(-199.11 -74.377)" fill="#b6d2fe"/>
</svg>
