<svg xmlns="http://www.w3.org/2000/svg" width="23.885" height="21.323" viewBox="0 0 23.885 21.323">
    <g transform="translate(0 -27.465)">
        <g transform="translate(6.118 35.122)">
            <path class="a" fill="#28a745"
                d="M369.412,204.861l-1.877-10.338a.35.35,0,0,0-.174-.244l-4.723-2.627a.349.349,0,0,0-.2-.043l.859,11.085-.029.013,5.652,2.536a.351.351,0,0,0,.489-.382Z"
                transform="translate(-351.65 -191.609)" />
            <path class="a" fill="#28a745"
                d="M136.967,194.162l-4.83-2.516a.35.35,0,0,0-.185-.038.361.361,0,0,1,.05,0l-.859,11.085,5.681,2.549a.352.352,0,0,0,.144.031h0Z"
                transform="translate(-131.142 -191.607)" />
        </g>
        <g transform="translate(0 35.123)">
            <path class="b" fill="#67c97e"
                d="M6.977,191.611a.35.35,0,0,0-.2.042L2.057,194.28a.35.35,0,0,0-.174.244L.006,204.862a.351.351,0,0,0,.489.382l5.622-2.522Z"
                transform="translate(0 -191.61)" />
            <path class="b" fill="#67c97e"
                d="M260.965,191.628a.349.349,0,0,0-.135.038L256,194.182v11.11h0a.35.35,0,0,0,.143-.031l5.681-2.549Z"
                transform="translate(-244.057 -191.627)" />
        </g>
        <path class="c" fill="#f8f9fb" d="M20.364,262.949l-.381,2.1,5.645-2.981.131-1.691.022-.28Z"
            transform="translate(-19.051 -221.779)" />
        <path class="d" fill="#dfe5e9"
            d="M6.628,288.294l-.051.656L.932,291.931l-.927,5.105a.351.351,0,0,0,.489.382L6.116,294.9l.512-6.6Z"
            transform="translate(0 -248.661)" />
        <g transform="translate(6.577 36.324)">
            <path class="e" fill="#f0f1f3"
                d="M146.344,260.843l-5.215-.746-.153,1.971,5.366,8.149v-2.963l-3.2-5.042,3.2.383Z"
                transform="translate(-140.977 -258.104)" />
            <path class="e" fill="#f0f1f3" d="M369.686,218.632l-2.269-1.262-2.148.5.027.347.106,1.368Z"
                transform="translate(-354.805 -217.37)" />
        </g>
        <path class="c" fill="#f8f9fb" d="M261.45,232.3l-.2-2.624h0l-.12-1.549-5.1,2.237v1.752l3.329-1.448Z"
            transform="translate(-244.086 -191.302)" />
        <path class="e" fill="#f0f1f3"
            d="M374.826,274.731l-.471-2.6-6.235-7.237.19,2.457,6.394,7.708A.35.35,0,0,0,374.826,274.731Z"
            transform="translate(-350.946 -226.356)" />
        <path class="f" fill="#ff4a4a"
            d="M156.265,27.465a4.908,4.908,0,0,0-4.9,4.9,8.552,8.552,0,0,0,2.359,5.333,16.759,16.759,0,0,0,2.331,2.291.351.351,0,0,0,.429,0,16.765,16.765,0,0,0,2.331-2.291,8.552,8.552,0,0,0,2.359-5.333A4.908,4.908,0,0,0,156.265,27.465Zm1.816,4.9a1.816,1.816,0,1,1-1.816-1.815A1.815,1.815,0,0,1,158.081,32.365Z"
            transform="translate(-144.3)" />
        <path class="g" fill="#e7343f"
            d="M243.555,27.465a4.932,4.932,0,0,0-.633.041,4.909,4.909,0,0,1,4.271,4.859,8.552,8.552,0,0,1-2.358,5.333,17.542,17.542,0,0,1-1.913,1.944c.245.212.4.334.418.347a.351.351,0,0,0,.429,0A16.765,16.765,0,0,0,246.1,37.7a8.552,8.552,0,0,0,2.358-5.333A4.908,4.908,0,0,0,243.555,27.465Z"
            transform="translate(-231.589)" />
        <path class="c" fill="#f8f9fb"
            d="M256.144,416.79l2.113-.948L256,413.507v3.313h0A.349.349,0,0,0,256.144,416.79Z"
            transform="translate(-244.057 -368.033)" />
        <g transform="translate(6.118 37.586)">
            <path class="h" fill="#a7b2bf"
                d="M372.948,244.87a.35.35,0,0,0-.174-.244l-.372-.207-4.284.955h0l6.235,7.237Z"
                transform="translate(-357.063 -244.42)" />
            <path class="h" fill="#a7b2bf"
                d="M136.965,310.845h0v-.35l-5.366-8.149-.459,5.92,5.681,2.549A.351.351,0,0,0,136.965,310.845Z"
                transform="translate(-131.14 -299.644)" />
        </g>
    </g>
</svg>