<svg xmlns="http://www.w3.org/2000/svg" width="16" height="16" viewBox="0 0 16 16">
<!--    <defs><style>.a{fill:none;}.b{fill:#28a745;}</style>-->
<!--    </defs>-->
    <rect class="a" width="16" height="16" fill="none"/>
    <path class="b" d="M11.907,12.419c-.073-.664-.137-1.329-.21-1.993-.079-.723-.164-1.446-.247-2.169-.068-.6-.135-1.193-.207-1.789-.093-.775-.193-1.55-.286-2.325-.021-.173-.032-.347-.043-.52a.607.607,0,0,0-.646-.519H8.58V1.715A2.138,2.138,0,0,0,7.345.3,3,3,0,0,0,4.26.558,1.724,1.724,0,0,0,3.447,2.1c.007.168.007.587,0,1H1.8a.622.622,0,0,0-.705.526.648.648,0,0,0,0,.132C1.035,4.293.949,4.82.886,5.35c-.049.418-.081.839-.129,1.257S.647,7.44.6,7.857c-.047.4-.083.8-.129,1.2-.051.443-.11.886-.161,1.33-.046.4-.083.811-.129,1.216-.048.424-.087.85-.159,1.27-.068.4.018.648.329.747a1.416,1.416,0,0,0,.419.06H11.227a.8.8,0,0,0,.759-.323v-.488C11.96,12.717,11.923,12.569,11.907,12.419ZM5.688,1.113a1.379,1.379,0,0,1,1.187.252.921.921,0,0,1,.4.741c0,.166,0,.582,0,1H4.755c0-.379,0-.748,0-.891A1.089,1.089,0,0,1,5.688,1.113Z" transform="translate(2.002 1.01)" fill="#28a745"/>
</svg>