<svg xmlns="http://www.w3.org/2000/svg" width="21.371" height="20.008" viewBox="0 0 21.371 20.008">
<!--    <defs>-->
<!--    <style>.a{fill:#fff;}</style></defs>-->
    <g transform="translate(-0.002)">
    <path class="a" d="M8.751,15.692a2.039,2.039,0,0,0-2.192,1.851,2.016,2.016,0,1,0,2.192-1.851Z" transform="translate(0.129 0.31)" fill="#fff"/>
    <path class="a" d="M16.589,15.7c-.057,0-.114-.006-.171-.005a1.994,1.994,0,1,0,.171.005Z" transform="translate(0.284 0.31)" fill="#fff"/>
    <path class="a" d="M7.49,11.994l.054-.008v-.005c.13-.019.25-.048.372-.055.551-.032,1.1-.057,1.651-.085l1.632-.084,1.672-.084,1.672-.084,1.651-.084c.551-.028,1.1-.059,1.651-.083.463-.019.926-.018,1.388-.047.286-.017.584-.058.727-.36a1.5,1.5,0,0,0,.1-.356c.007-.039.013-.078.02-.115.038-.2.073-.392.111-.587q.174-.938.348-1.873c.1-.527.2-1.053.3-1.581l.03-.161c.1-.571.195-1.144.3-1.715.061-.338.138-.672.2-1.008V3.086a.8.8,0,0,0-.807-.424q-7.63.015-15.26.007H5.045V2.657h0c-.173-.67-.347-1.334-.516-2A.969.969,0,0,0,4.028,0H.442A.842.842,0,0,1,.364.057.713.713,0,0,0,.041.911a.625.625,0,0,0,.612.423H3.26c.083.313.162.612.243.918l.982,3.671q.367,1.377.733,2.753c.282,1.054.569,2.108.851,3.161.212.792.417,1.587.629,2.379a.625.625,0,0,0,.59.457H18.108a.515.515,0,0,0,.18-.023.679.679,0,0,0,.414-.825.661.661,0,0,0-.647-.492c-3.3.01-6.6.006-9.9.006a.648.648,0,0,1-.166,0c-.045-.013-.109-.048-.119-.086-.114-.42-.219-.843-.327-1.267L7.488,12M9.365,8.655a.666.666,0,0,1-.493.661H8.865l-.036.008a.686.686,0,0,1-.164.017.663.663,0,0,1-.659-.665V6.023a.662.662,0,0,1,.631-.692h.047a.686.686,0,0,1,.68.68Zm4,.018a.676.676,0,0,1-1.351.021c0-.016,0-.032,0-.048V6.02a.66.66,0,0,1,.633-.687h.029a.679.679,0,0,1,.688.67v.005q0,1.334,0,2.667Zm4-.015a.685.685,0,0,1-.2.487.671.671,0,0,1-1.147-.485V6.008a.661.661,0,0,1,.638-.681H16.7a.649.649,0,0,1,.6.367V5.7l.017.038a.75.75,0,0,1,.057.288V7.341c0,.437.006.879.005,1.316Z" transform="translate(0)" fill="#fff"/>
</g>
</svg>