<svg xmlns="http://www.w3.org/2000/svg" width="50" height="50" viewBox="0 0 50 50">
<!--    <defs>-->
<!--        <style>.a{fill:#4eaaff;}.b{fill:#fff;}</style>-->
<!--    </defs>-->
    <g transform="translate(-28 -192)">
        <rect class="a" width="50" height="50" rx="20" transform="translate(28 192)" fill="#4eaaff"/>
        <g transform="translate(41 205)">
            <path class="b"
                d="M7.992,4.5h8.016l1.73-1.384a1.729,1.729,0,0,0,.56-1.945A1.726,1.726,0,0,0,16.65,0H7.35A1.728,1.728,0,0,0,5.7,1.171a1.729,1.729,0,0,0,.559,1.944Z" fill="#fff"/>
            <path class="b"
                d="M16.145,6H7.855A17.371,17.371,0,0,0,3,17.25C3,20.609,4.778,24,8.75,24H15.5c3.393,0,5.5-2.587,5.5-6.75A17.371,17.371,0,0,0,16.145,6ZM11.62,14.25h.76a2.122,2.122,0,0,1,.37,4.212v.787a.75.75,0,0,1-1.5,0V18.5h-1a.75.75,0,1,1,0-1.5h2.13a.625.625,0,0,0,0-1.25h-.76a2.122,2.122,0,0,1-.37-4.212V10.75a.75.75,0,0,1,1.5,0v.75h1a.75.75,0,0,1,0,1.5H11.62a.625.625,0,0,0,0,1.25Z" fill="#fff"/>
        </g>
    </g>
</svg>