<svg xmlns="http://www.w3.org/2000/svg" width="16.381" height="16.904" viewBox="0 0 16.381 16.904">
<!--    <defs>-->
<!--        <style>-->
<!--            .a{fill:#e4e8ed;}.b{fill:#dfe5e9;}.c{fill:#d2d8e2;}.d{fill:#c9d0d8;}.e{fill:#ffe9cc;}.f{fill:#28a745;}.g{fill:#f1f2f2;}-->
<!--        </style>-->
<!--    </defs>-->
    <g transform="translate(-1.839)">
        <g transform="translate(1.839)">
            <path class="a"
                d="M9.392,16c-.018-.062-.033-.13-.049-.2-.008-.036-.013-.072-.02-.108-.01-.062-.02-.128-.029-.194-.005-.036-.007-.075-.013-.111-.005-.069-.007-.139-.01-.211,0-.025,0-.05,0-.075v-.025c0-.078.005-.158.01-.236a.643.643,0,0,0,0-.067,3.4,3.4,0,0,1,.1-.58,3.007,3.007,0,0,1,1.938-2.105,2.774,2.774,0,0,1,.536-.114c.02,0,.043,0,.066-.006.072-.006.146-.011.215-.011h.023l.069,0c.064,0,.13.006.194.011.033,0,.069.008.1.014.058.008.12.019.179.031.033.006.066.014.1.022a1.493,1.493,0,0,1,.181.053.743.743,0,0,1,.084.028,2.05,2.05,0,0,1,.253.106V.637a.607.607,0,0,0-.58-.63H3.766V3.149a.608.608,0,0,1-.58.63H0V15.736a.608.608,0,0,0,.58.63H9.514c-.036-.089-.069-.18-.1-.275A.914.914,0,0,0,9.392,16Z"
                transform="translate(0 -0.005)" fill="#e4e8ed"/>
            <path class="b"
                d="M13.1,30.973h9.753a.631.631,0,0,0,.63-.63V21.249A15.769,15.769,0,0,1,13.1,30.973Z"
                transform="translate(-10.156 -14.612)" fill="#dfe5e9"/>
            <g transform="translate(1.631 5.98)">
                <rect class="c" width="7.55" height="0.627" rx="0.313"
                    transform="translate(2.516)" fill="#d2d8e2"/>
                <rect class="c" width="1.886" height="0.627" rx="0.313" fill="#d2d8e2"/>
                <g transform="translate(0 1.889)">
                    <rect class="c" width="10.066" height="0.627" rx="0.313" fill="#d2d8e2"/>
                </g>
                <g transform="translate(0 3.778)">
                    <rect class="c" width="10.066" height="0.627" rx="0.313" fill="#d2d8e2"/>
                </g>
                <g transform="translate(0 5.661)">
                    <rect class="c" width="10.066" height="0.627" rx="0.313" fill="#d2d8e2"/>
                </g>
                <g transform="translate(0 7.544)">
                    <rect class="c" width="10.066" height="0.627" rx="0.313" fill="#d2d8e2"/>
                </g>
            </g>
            <path class="d" d="M4.091,3.145V0L0,3.775H3.461a.629.629,0,0,0,.63-.628Z" fill="#c9d0d8"/>
            <path class="e" d="M32.289,47.3a.476.476,0,0,0,0,.067A.476.476,0,0,1,32.289,47.3Z"
                transform="translate(-23.002 -32.528)" fill="#ffe9cc"/>
            <path class="e"
                d="M43.338,38.34c-.036-.006-.075-.008-.111-.014C43.263,38.328,43.3,38.334,43.338,38.34Z"
                transform="translate(-30.874 -26.355)" fill="#ffe9cc"/>
        </g>
        <g transform="translate(9.496 8.181)">
            <path class="f"
                d="M38.335,38.64a4,4,0,0,0-.38-.146c-.043-.016-.086-.023-.127-.038-.086-.027-.181-.05-.273-.073-.05-.011-.1-.023-.15-.031-.086-.016-.177-.031-.269-.043-.05-.008-.1-.012-.154-.019-.1-.008-.192-.012-.292-.015-.046,0-.092,0-.138,0-.107,0-.216.008-.323.015-.035,0-.065,0-.1.008a4.361,4.361,0,0,0-3.879,3.879.822.822,0,0,0,0,.092c-.008.108-.016.219-.016.326,0,.046,0,.092,0,.138,0,.1.008.2.015.292,0,.05.012.1.019.154.012.086.027.18.043.269.008.05.019.1.031.15a2.2,2.2,0,0,0,.073.272,1.272,1.272,0,0,0,.038.127,3.237,3.237,0,0,0,.146.38,4.357,4.357,0,1,0,5.734-5.733ZM35.72,44.373l-1.413-1.413,1.413,1.413,3.26-3.26Z"
                transform="translate(-32.232 -38.271)" fill="#28a745"/>
            <path class="g"
                d="M38.038,48.134a.435.435,0,0,1-.307-.127l-1.413-1.413.617-.615,1.106,1.106,2.953-2.953.615.617-3.26,3.26A.465.465,0,0,1,38.038,48.134Z"
                transform="translate(-34.551 -41.597)" fill="#f1f2f2"/>
        </g>
    </g>
</svg>