<svg xmlns="http://www.w3.org/2000/svg" width="133" height="85" viewBox="0 0 133 85">
<!--    <defs>-->
<!--        <style>-->
<!--            .a{fill:#fff;}.b{clip-path:url(#a);}.c{fill:#d9dee5;}.d,.h{fill:#a7b2bf;}.e,.g{
fill:#e9edf2;}.f{fill:#cdd3dd;}.g,.h,.i,.j,.k{fill-rule:evenodd;}.i{fill:#e5eaef;}.j{fill:#bac2cc;}.k{fill:#f8f9fb;}-->
<!--        </style>-->
<!--        <clipPath id="a">-->
<!--            <rect class="a" width="133" height="85" transform="translate(265 85)" />-->
<!--        </clipPath>-->
<!--    </defs>-->
    <g class="b" transform="translate(-265 -85)">
        <g transform="translate(263.054 74.054)">
            <path class="c"
                d="M138.4,112.751q-1.21-13.32-2.769-26.7a10.993,10.993,0,0,0-9.473-9.473q-13.377-1.55-26.7-2.769a7.092,7.092,0,0,0-5.726,2.127C77.419,92.629,60.255,109.788,43.58,126.082a4.78,4.78,0,0,0,.054,6.886c11.921,11.666,23.948,23.693,35.614,35.614a4.78,4.78,0,0,0,6.886.054c16.295-16.676,33.453-33.84,50.143-50.159a7.091,7.091,0,0,0,2.128-5.726ZM122.414,89.8a3.6,3.6,0,1,1,5.228.127A3.711,3.711,0,0,1,122.414,89.8Z"
                transform="translate(-26.195 -49.116)" fill="#d9dee5"/>
            <path class="d"
                d="M369.6,115.964a5.685,5.685,0,0,1-8.031-8.031,5.688,5.688,0,0,1,8.031,8.031Z"
                transform="translate(-269.808 -75.817)" fill="#d9dee5"/>
            <path class="e"
                d="M138.4,112.751q-1.21-13.32-2.769-26.7a10.993,10.993,0,0,0-9.473-9.473q-13.377-1.55-26.7-2.769a7.092,7.092,0,0,0-5.726,2.127C77.419,92.629,60.255,109.788,43.58,126.082a4.78,4.78,0,0,0,.054,6.886c11.921,11.666,23.948,23.693,35.614,35.614a4.78,4.78,0,0,0,6.886.054c16.295-16.676,33.453-33.84,50.143-50.159a7.091,7.091,0,0,0,2.128-5.726ZM122.414,89.8a3.6,3.6,0,1,1,5.228.127A3.711,3.711,0,0,1,122.414,89.8Z"
                transform="translate(-29.195 -51.116)" fill="#e9edf2"/>
            <path class="c"
                d="M125.421,104.509c-15.758,16.026-32.259,32.533-48.306,48.322,10.693,10.524,21.472,21.3,32,32,15.789-16.046,32.3-32.547,48.323-48.306-10.7-10.526-21.487-21.311-32.013-32.013Z"
                transform="translate(-55.666 -74.372)" fill="#d9dee5"/>
            <path class="f"
                d="M100.38,277.055l-.64-.217c8.878,8.786,17.774,17.706,26.5,26.568,13.772-14,28.09-28.338,42.158-42.231-17.886,17.665-44.124,24.138-68.014,15.879Z"
                transform="translate(-72.791 -192.951)" fill="#cdd3dd"/>
        </g>
        <g transform="translate(-126.941 -267.368)">
            <path class="g"
                d="M403.562,380.052a10.87,10.87,0,1,0,15.343.935A10.868,10.868,0,0,0,403.562,380.052Z"
                transform="translate(1.176 1.175)" fill-rule="evenodd" fill="#d9dee5"/>
            <path class="h"
                d="M425.657,386.575a14,14,0,1,1-16.51-10.923,14,14,0,0,1,16.51,10.923Zm-3.528.719a10.4,10.4,0,1,0-8.115,12.263A10.408,10.408,0,0,0,422.129,387.294Z"
                transform="translate(0)" fill-rule="evenodd" fill="#a7b2bf"/>
            <rect class="d" width="3.427" height="7.255"
                transform="translate(418.207 399.033) rotate(-41.501)" fill="#a7b2bf"/>
            <path class="i"
                d="M414.009,392.195h0a3.975,3.975,0,0,0-.343,5.593l14.693,16.6a3.974,3.974,0,0,0,5.593.343h0a3.976,3.976,0,0,0,.34-5.594l-14.689-16.6A3.975,3.975,0,0,0,414.009,392.195Z"
                transform="translate(8.865 9.526)" fill="#e5eaef"/>
            <path class="j"
                d="M414.009,392.195h0a3.975,3.975,0,0,0-.343,5.593l5.935-5.251a3.976,3.976,0,0,0-5.593-.341Zm.8,6.883,5.934-5.25,12.406,14.018-5.934,5.25L414.81,399.078Zm13.549,15.309a3.974,3.974,0,0,0,5.593.343h0a3.978,3.978,0,0,0,.341-5.594Z"
                transform="translate(8.865 9.527)" fill="#bac2cc"/>
            <path class="k"
                d="M413.689,383.681a1.19,1.19,0,1,0,1.911-1.419,9.052,9.052,0,0,0-.83-.971,8.564,8.564,0,0,0-5.247-2.542,7.909,7.909,0,0,0-5.514,1.493,8.25,8.25,0,0,0-.85.729,1.189,1.189,0,0,0,1.664,1.7,5.649,5.649,0,0,1,.605-.513,5.536,5.536,0,0,1,3.86-1.047,6.2,6.2,0,0,1,3.786,1.847A7.149,7.149,0,0,1,413.689,383.681Z"
                transform="translate(2.925 2.01)" fill="#f8f9fb" />
        </g>
    </g>
</svg>