<svg xmlns="http://www.w3.org/2000/svg" xmlns:xlink="http://www.w3.org/1999/xlink" width="22"
    height="22" viewBox="0 0 22 22">
<!--    <defs>-->
<!--        <style>.a{fill:none;}.b{clip-path:url(#a);}.c{fill:#929daa;}.d{fill:#fff;}</style>-->
<!--        <clipPath id="a">-->
<!--            <rect class="a" width="22" height="22" rx="4" transform="translate(-0.243 -0.243)" />-->
<!--        </clipPath>-->
<!--    </defs>-->
    <g transform="translate(-11.757 -20.757)">
        <g transform="translate(12 21)">
            <g class="b" clip-path="none">
                <g transform="translate(2.066 -0.114)">
                    <path class="c"
                        d="M1374.336,380.938v13.674a11.641,11.641,0,0,1-12.362,3.083,3.809,3.809,0,0,0-2.56-.031c-.837.311-1.708.529-2.634.809.132-.735.231-1.413.379-2.08a2.56,2.56,0,0,0-.489-2.419,10.016,10.016,0,0,1-1.929-8.6,10.472,10.472,0,0,1,5.071-6.822.849.849,0,0,1,.42-.105c3.663-.006,7.327-.018,10.99,0a3.025,3.025,0,0,1,2.755,1.622A7.416,7.416,0,0,1,1374.336,380.938Zm-14.975,8.688c.433-.577.821-1.082,1.2-1.6.413-.565.841-1.122,1.213-1.713.286-.454.092-.888-.437-.922-.976-.062-1.957-.043-2.935-.05-.1,0-.237.016-.283.078-.128.177-.309.389-.3.574a.654.654,0,0,0,.411.437,3.267,3.267,0,0,0,.862.035c.367,0,.734,0,1.161,0-.808,1.084-1.56,2.1-2.319,3.107a.8.8,0,0,0-.168.835.761.761,0,0,0,.783.412c.931.017,1.862.016,2.793,0,.448-.007.695-.26.676-.636s-.259-.562-.7-.564C1360.695,389.624,1360.068,389.626,1359.361,389.626Zm5.416-2.632a1.625,1.625,0,0,0-2.369.3,2.439,2.439,0,0,0-.463,1.651,2,2,0,0,0,1.041,1.79,1.511,1.511,0,0,0,1.819-.207.592.592,0,0,0,.793.277c.32-.12.368-.426.362-.754-.016-.854-.01-1.709,0-2.563,0-.314-.016-.607-.355-.753A.652.652,0,0,0,1364.777,386.994Zm5.252,3.92a2.16,2.16,0,1,0-2-2.149A1.979,1.979,0,0,0,1370.029,390.914Zm-2.351-3c0-.766.009-1.532,0-2.3-.008-.444-.249-.7-.613-.716a.626.626,0,0,0-.643.686q-.021,2.3,0,4.6a.6.6,0,0,0,.724.652c.333-.03.527-.284.532-.735C1367.684,389.371,1367.678,388.643,1367.678,387.914Z"
                        transform="translate(-1354.467 -378.441)" fill="#929daa"/>
                    <path class="d"
                        d="M1398.882,473.77c.707,0,1.334,0,1.961,0,.439,0,.68.2.7.564s-.229.629-.676.636c-.931.013-1.862.015-2.793,0a.761.761,0,0,1-.783-.412.8.8,0,0,1,.168-.835c.759-1.009,1.51-2.023,2.319-3.107-.427,0-.794,0-1.161,0a3.265,3.265,0,0,1-.862-.035.654.654,0,0,1-.411-.437.63.63,0,0,1,.257-.58.779.779,0,0,1,.322-.072c.979.008,1.936.014,2.922.029a.569.569,0,0,1,.45.943c-.372.591-.8,1.148-1.213,1.713C1399.7,472.688,1399.316,473.193,1398.882,473.77Z"
                        transform="translate(-1393.988 -462.585)" fill="#fff"/>
                    <path class="d"
                        d="M1455.862,486.484a.652.652,0,0,1,.825-.261c.34.146.358.439.355.753-.007.854-.013,1.709,0,2.563.006.328-.042.634-.362.754a.591.591,0,0,1-.792-.277,1.512,1.512,0,0,1-1.82.207,2,2,0,0,1-1.041-1.79,2.44,2.44,0,0,1,.463-1.651A1.625,1.625,0,0,1,1455.862,486.484Zm-1.621,1.764c0,.489.183.877.531.925a1.071,1.071,0,0,0,.754-.151.979.979,0,0,0,.264-1.067c-.1-.332-.251-.631-.664-.658C1454.573,487.263,1454.244,487.615,1454.242,488.248Z"
                        transform="translate(-1445.552 -477.931)" fill="#fff"/>
                    <path class="d"
                        d="M1535.3,490.421a2.174,2.174,0,1,1,2.046-2.138A2.112,2.112,0,0,1,1535.3,490.421Zm-.755-2.2c0,.5.175.837.5.956.593.214,1.156-.326,1.078-1.032a.855.855,0,0,0-.691-.854C1534.868,487.241,1534.548,487.576,1534.544,488.221Z"
                        transform="translate(-1519.739 -477.922)" fill="#fff"/>
                    <path class="d"
                        d="M1513.223,466.644c0,.728.006,1.457,0,2.185,0,.451-.2.705-.532.735a.6.6,0,0,1-.724-.652q-.025-2.3,0-4.6a.626.626,0,0,1,.643-.686.637.637,0,0,1,.613.716C1513.233,465.112,1513.223,465.878,1513.223,466.644Z"
                        transform="translate(-1500.012 -457.17)" fill="#fff"/>
                    <path class="c"
                        d="M1469.061,502.9c0-.633.332-.986.884-.95.413.027.568.326.664.658a.979.979,0,0,1-.264,1.067,1.071,1.071,0,0,1-.753.151C1469.244,503.776,1469.059,503.387,1469.061,502.9Z"
                        transform="translate(-1460.372 -492.581)" fill="#929daa"/>
                    <path class="c"
                        d="M1549.719,502.87c0-.645.323-.98.889-.93a.855.855,0,0,1,.691.854c.078.707-.485,1.246-1.077,1.032C1549.894,503.707,1549.717,503.371,1549.719,502.87Z"
                        transform="translate(-1534.914 -492.571)" fill="#929daa"/>
                </g>
            </g>
        </g>
    </g>
</svg>