<svg
    xmlns="http://www.w3.org/2000/svg" width="17" height="17" viewBox="0 0 17 17">
<!--    <defs>-->
<!--        <style>.a{fill:#fff;stroke:#fff;stroke-width:2px;}.b{fill:#1877f2;}.c{stroke:none;}.d{fill:none;}</style>-->
<!--    </defs>-->
    <g transform="translate(-426.374 -152.374)">
        <g class="a" fill="#fff" stroke="#fff" stroke-width="2px" transform="translate(426.374 152.374)">
            <circle class="c" stroke="none" cx="8.5" cy="8.5" r="8.5"/>
            <circle class="d" fill="none" cx="8.5" cy="8.5" r="7.5"/>
        </g>
        <g transform="translate(427.773 153.773)">
            <path class="b" fill="#1877f2" d="M781.9,370.495v-4.848h.1c.477,0,.953,0,1.43,0,.068,0,.09-.017.1-.089.079-.535.165-1.069.247-1.6.017-.107.029-.215.046-.337H781.9c0-.037-.006-.061-.006-.084,0-.4,0-.807,0-1.211a1.118,1.118,0,0,1,.224-.723.925.925,0,0,1,.687-.341c.327-.02.655-.015.982-.02h.116v-1.728c-.178-.023-.359-.054-.541-.069-.314-.026-.628-.055-.943-.062a2.674,2.674,0,0,0-1.9.609,2.3,2.3,0,0,0-.7,1.174,3.334,3.334,0,0,0-.112.879c0,.486,0,.971,0,1.457v.113h-1.761v2.032H779.7V370.5a6.968,6.968,0,1,1,2.194,0Z" transform="translate(-773.838 -356.664)"/>
        </g>
    </g>
</svg>