<svg xmlns="http://www.w3.org/2000/svg" width="23.494" height="20.063" viewBox="0 0 23.494 20.063">
  <g id="Group_5629" data-name="Group 5629" transform="translate(-9.129 -8.208)">
    <g id="Group_5627" data-name="Group 5627">
      <path id="Path_1956" data-name="Path 1956" d="M31.522,21.5a5.364,5.364,0,0,0,1.1-3.3A5.185,5.185,0,0,0,28.79,13.1a5.842,5.842,0,0,0-5.584-4.892,5.548,5.548,0,0,0-4.63,2.55,4.354,4.354,0,0,0-.958-.106,4.757,4.757,0,0,0-4.536,3.91,4.469,4.469,0,0,0,.25,8.9h5.605c0-.045-.008-.088-.009-.132,0-.029,0-.057,0-.086a6.031,6.031,0,0,1,5.642-6.009c.128-.008.256-.019.386-.019.112,0,.222.011.334.017a6.018,6.018,0,0,1,5.574,4.939A5.356,5.356,0,0,0,31.522,21.5Z" fill="#eb3b5b"/>
    </g>
    <g id="Group_5628" data-name="Group 5628">
      <path id="Path_1957" data-name="Path 1957" d="M24.952,18.216a5.028,5.028,0,1,0,5.028,5.028A5.034,5.034,0,0,0,24.952,18.216ZM27.31,25,26.6,25.7,25,24.1l-1.6,1.6L22.688,25l1.6-1.6-1.6-1.6.707-.707,1.6,1.6,1.6-1.6.707.707-1.6,1.6Z" fill="#e0e5ee"/>
      <path id="Path_1958" data-name="Path 1958" d="M26.6,21.083l-1.6,1.6-1.6-1.6-.707.707,1.6,1.6-1.6,1.6.707.707L25,24.1l1.6,1.6L27.31,25l-1.6-1.6,1.6-1.6Z" fill="#929daa"/>
    </g>
  </g>
</svg>
