<svg xmlns="http://www.w3.org/2000/svg" width="32.508" height="24.744" viewBox="0 0 32.508 24.744">
    <!--    <defs>-->
    <!--        <style>.a{fill:#858f9b;}.b{fill:#28a745;}.c{fill:#fff;}</style>-->
    <!--    </defs>-->
    <g transform="translate(-52.354 -168.118)">
        <g transform="translate(52.354 123.118)">
            <path class="a"
                d="M25.4,48.48H20.473l-1.051-2.8A1.044,1.044,0,0,0,18.444,45H8.7a1.044,1.044,0,0,0-.978.677l-1.051,2.8H1.74A1.74,1.74,0,0,0,0,50.22V64.14a1.74,1.74,0,0,0,1.74,1.74H25.4a1.74,1.74,0,0,0,1.74-1.74V50.22A1.74,1.74,0,0,0,25.4,48.48ZM13.572,50.568A6.612,6.612,0,1,1,6.96,57.18,6.62,6.62,0,0,1,13.572,50.568Z"
                transform="translate(0 0)" fill="#858f9b" />
            <path class="a"
                d="M130,159.524A4.524,4.524,0,1,0,134.524,155,4.529,4.529,0,0,0,130,159.524Z"
                transform="translate(-120.952 -102.344)" fill="#858f9b" />
        </g>
        <g transform="translate(72 180)">
            <path class="b"
                d="M6.431,0a6.431,6.431,0,1,0,6.431,6.431h0A6.444,6.444,0,0,0,6.431,0ZM9.152,7.173H7.173V9.152a.742.742,0,0,1-1.484,0V7.173H3.71a.742.742,0,1,1,0-1.484h1.98V3.71a.742.742,0,1,1,1.484,0h0V5.689H9.152a.742.742,0,0,1,0,1.484Z"
                fill="#28a745" />
            <path class="c" fill="#fff"
                d="M9.152,5.689H7.173V3.708a.742.742,0,1,0-1.484,0V5.689H3.708a.742.742,0,1,0,0,1.484H5.689V9.152a.742.742,0,0,0,1.484,0V7.173H9.152a.742.742,0,0,0,0-1.484Z" />
        </g>
    </g>
</svg>