<svg height="22.384" viewBox="0 0 23.983 22.384" width="23.983" xmlns="http://www.w3.org/2000/svg">

    <g transform="translate(-30.556 -6.232)">
        <g transform="translate(30.556 14.227)">
            <g transform="translate(0)">
                <path class="a" fill="#28a745"
                    d="M34.553,241.468h-3.2a.8.8,0,0,0-.8.8v12.791a.8.8,0,0,0,.8.8h3.2a.8.8,0,0,0,.8-.8V242.267A.8.8,0,0,0,34.553,241.468Z"
                    transform="translate(-30.556 -241.468)" />
            </g>
        </g>
        <g transform="translate(36.951 6.232)">
            <g transform="translate(0)">
                <path class="a" fill="#28a745"
                    d="M168.365,101.285a2.514,2.514,0,0,0-2.548-2.119h-6.233a13.8,13.8,0,0,0,.8-4.727,3.329,3.329,0,0,0-3.337-3.267h-.66a.8.8,0,0,0-.8.8c0,1.849-.72,5.185-2.077,6.543a8.855,8.855,0,0,1-2.719,1.757v12a18.675,18.675,0,0,0,6.594,1.289h5.229a2.431,2.431,0,0,0,2.4-3.282,2.4,2.4,0,0,0,1.6-3.2,2.4,2.4,0,0,0,1.155-3.913A2.393,2.393,0,0,0,168.365,101.285Z"
                    transform="translate(-150.794 -91.172)" />
            </g>
        </g>
    </g>
</svg>