<svg xmlns="http://www.w3.org/2000/svg" width="414.028" height="174.555" viewBox="0 0 414.028 174.555"><defs><style>.a,.c{fill:url(#a);}.b{clip-path:url(#b);}.c,.e{mix-blend-mode:overlay;}.c,.d,.e{isolation:isolate;}.d{opacity:0.173;mix-blend-mode:screen;}.d,.e{fill:url(#e);}.e{opacity:0.305;}</style><linearGradient id="a" x1="0.012" y1="0.765" x2="0.981" y2="0.085" gradientUnits="objectBoundingBox"><stop offset="0" stop-color="#135a42"/><stop offset="0.19" stop-color="#266a44"/>
    <stop offset="0.58" stop-color="#56944a"/><stop offset="1" stop-color="#8ec650"/></linearGradient><clipPath id="b"><path class="a" d="M33,201.142V58H447.028V201.193C384.375,221.3,314.2,232.555,240.094,232.555,165.92,232.555,95.7,221.28,33,201.142Z" transform="translate(1008.389 508.089)"/></clipPath><linearGradient id="e" x1="0.012" y1="0.765" x2="0.981" y2="0.085" gradientUnits="objectBoundingBox"><stop offset="0" stop-color="#135a42"/>
    <stop offset="0.099" stop-color="#165c42"/><stop offset="0.19" stop-color="#266a44"/><stop offset="0.58" stop-color="#56944a"/><stop offset="1" stop-color="#8ec650"/></linearGradient></defs><g class="b" transform="translate(-1041.389 -566.089)"><g transform="translate(605 363.086)"><rect class="a" width="981" height="211" transform="translate(129.176 177.737)"/><path class="c" d="M-655.583,595.762S64.038,569.949,251.75,792.381-717.316,1012.14-717.316,1012.14-820.546,827.487-821.2,807.972-655.583,595.762-655.583,595.762Z" transform="translate(794.29 -551.833)"/><path class="d" d="M-269,513.683s205.122,526.808,539.961,426.5-32.708-536.1-32.708-536.1l-272.62,30.6Z" transform="translate(780.604 -404.086)"/><path class="e" d="M0,91.14s229.465,393.5,546.747,399.567S507.253,0,507.253,0L234.633,25.449Z" transform="translate(657.835 507.407) rotate(164)"/></g></g></svg>