<svg height="16.664" viewBox="0 0 13.903 16.664" width="13.903" xmlns="http://www.w3.org/2000/svg">

    <path class="a" fill="#a7b2bf"
        d="M91.045,8.027a3.884,3.884,0,0,0,2.838-1.176,3.883,3.883,0,0,0,1.176-2.838,3.884,3.884,0,0,0-1.176-2.838,4.013,4.013,0,0,0-5.676,0,3.884,3.884,0,0,0-1.176,2.838,3.884,3.884,0,0,0,1.176,2.838A3.884,3.884,0,0,0,91.045,8.027Zm0,0"
        transform="translate(-84.199 0)" />
    <path class="a" fill="#a7b2bf"
        d="M13.869,252.081a9.914,9.914,0,0,0-.135-1.053,8.3,8.3,0,0,0-.259-1.059,5.228,5.228,0,0,0-.435-.987,3.724,3.724,0,0,0-.656-.855,2.893,2.893,0,0,0-.943-.592,3.259,3.259,0,0,0-1.2-.218,1.222,1.222,0,0,0-.652.277c-.2.127-.424.275-.68.438a3.9,3.9,0,0,1-.879.387,3.415,3.415,0,0,1-2.151,0A3.884,3.884,0,0,1,5,248.031c-.253-.162-.482-.309-.68-.438a1.22,1.22,0,0,0-.652-.277,3.254,3.254,0,0,0-1.2.218,2.89,2.89,0,0,0-.943.592,3.727,3.727,0,0,0-.656.855,5.238,5.238,0,0,0-.435.988,8.315,8.315,0,0,0-.259,1.059,9.879,9.879,0,0,0-.135,1.053c-.022.319-.033.65-.033.984a2.767,2.767,0,0,0,.822,2.093,2.958,2.958,0,0,0,2.118.773h8.024a2.957,2.957,0,0,0,2.118-.773,2.766,2.766,0,0,0,.822-2.094c0-.336-.011-.667-.034-.984Zm0,0"
        transform="translate(0 -239.267)" />
</svg>