<svg xmlns="http://www.w3.org/2000/svg" width="19.641" height="19.641" viewBox="0 0 19.641 19.641">
<!--    <defs>-->
<!--        <style>.a{fill:#fff;}.b{fill:#007fff;}.c{fill:#fafafa;}</style>-->
<!--    </defs>-->
    <g transform="translate(1.595 1.595)">
        <path class="a" fill="#fff"
            d="M9.82,0C4.4,0,0,4.071,0,9.092a8.841,8.841,0,0,0,3.659,7.08v3.468L7,17.805a10.561,10.561,0,0,0,2.817.381c5.423,0,9.82-4.071,9.82-9.092S15.244,0,9.82,0Z"
            transform="translate(-1.595 -1.595)" />
        <path class="b" fill="#007fff"
            d="M8.226,0C3.683,0,0,3.41,0,7.616a7.405,7.405,0,0,0,3.065,5.931v2.9l2.8-1.537a8.846,8.846,0,0,0,2.36.319c4.543,0,8.226-3.41,8.226-7.616S12.768,0,8.226,0Z" />
        <path class="c" fill="#fafafa"
            d="M95.238,175.429l-2.094-2.234-4.087,2.234,4.5-4.773L95.7,172.89l4.037-2.234Z"
            transform="translate(-86.195 -165.173)" />
    </g>
</svg>