<svg height="18.595" viewBox="0 0 21.564 18.595" width="21.564" xmlns="http://www.w3.org/2000/svg">
    <g transform="translate(-319 -114)">
        <path class="a" fill="#fff"
            d="M340.564,116.273c0,3.744-.023,11.294-.025,11.326a2.112,2.112,0,0,1-.166.709,2.363,2.363,0,0,1-1.123,1.209,1.874,1.874,0,0,1-.814.235c-.971.014-1.943.012-2.914.012q-3.775,0-7.55,0a.225.225,0,0,0-.224.109q-.612,1.02-1.23,2.037c-.743,1.093-1.4.71-1.8.066q-.664-1.036-1.327-2.074a.186.186,0,0,0-.181-.1q-.889.005-1.777,0a2.33,2.33,0,0,1-.963-.192,2.3,2.3,0,0,1-1.423-1.875c-.009-.069-.028-.137-.042-.205V116.273a.375.375,0,0,0,.024-.083,1.948,1.948,0,0,1,.17-.719,2.339,2.339,0,0,1,1.922-1.449c.076-.009.15-.009.225-.023h16.882a.459.459,0,0,0,.093.024,2.135,2.135,0,0,1,.835.2,2.3,2.3,0,0,1,1.37,1.846C340.53,116.139,340.549,116.206,340.564,116.273Zm-10.789,8.216q1.8,0,3.6,0a.841.841,0,0,0,.26-.044.745.745,0,0,0,.365-1.131.8.8,0,0,0-.717-.328l-7,0a1.006,1.006,0,0,0-.312.027.75.75,0,0,0-.494.994.809.809,0,0,0,.662.483C327.352,124.486,328.563,124.489,329.775,124.489Zm0-4.007h3.7a.342.342,0,0,0,.111-.01.753.753,0,0,0-.16-1.477q-3.645,0-7.289,0a.657.657,0,0,0-.286.07.743.743,0,0,0-.366.963.767.767,0,0,0,.623.452C327.331,120.48,328.553,120.483,329.776,120.483Z" />
    </g>
</svg>