<svg height="13.11" viewBox="0 0 19.115 13.11" width="19.115" xmlns="http://www.w3.org/2000/svg">
<!--    <defs>-->
<!--        <style>.a{fill:#e8ebf1;}.b{fill:#c1c5cc;}</style>-->
<!--    </defs>-->
    <path class="a" fill="#e8ebf1"
        d="M1.835,59.78q.363.274,2.187,1.629t2.795,2.086q.107.08.453.349t.576.434q.229.166.555.371a3.125,3.125,0,0,0,.613.308,1.589,1.589,0,0,0,.533.1h.021a1.591,1.591,0,0,0,.533-.1,3.127,3.127,0,0,0,.613-.308q.325-.206.555-.371t.576-.434q.347-.269.453-.349l4.992-3.714a5.268,5.268,0,0,0,1.3-1.406,3.167,3.167,0,0,0,.523-1.726,1.815,1.815,0,0,0-.507-1.292,1.6,1.6,0,0,0-1.2-.537H1.707a1.482,1.482,0,0,0-1.264.594A2.419,2.419,0,0,0,0,56.9a2.78,2.78,0,0,0,.587,1.56A5.489,5.489,0,0,0,1.835,59.78Z"
        transform="translate(0 -54.82)" />
    <path class="b"
        fill="#c1c5cc"
        d="M18.048,185.487q-3.5,2.68-5.312,4.166-.608.507-.987.791a5.861,5.861,0,0,1-1.008.579,2.771,2.771,0,0,1-1.173.3H9.547a2.772,2.772,0,0,1-1.173-.3,5.864,5.864,0,0,1-1.008-.579q-.379-.284-.987-.791-1.44-1.2-5.3-4.166A5.914,5.914,0,0,1,0,184.437v9.587a1.99,1.99,0,0,0,.5,1.365,1.554,1.554,0,0,0,1.205.568h15.7a1.554,1.554,0,0,0,1.205-.568,1.99,1.99,0,0,0,.5-1.365v-9.587A6.168,6.168,0,0,1,18.048,185.487Z"
        transform="translate(0 -182.846)" />
</svg>