<svg height="15.314" viewBox="0 0 15.283 15.314" width="15.283" xmlns="http://www.w3.org/2000/svg">
    <g transform="translate(-1399.841 -131.783)">
        <g transform="translate(1399.841 131.783)">
            <path class="a" fill="#a7b2bf"
                d="M36.631,21.887l-3.711.015a1.33,1.33,0,0,0-1.161.688L29.818,26.1l6.439-.015Z"
                transform="translate(-29.581 -21.872)" />
            <path class="a" fill="#a7b2bf"
                d="M134.785,25.908l-1.963-3.518a1.342,1.342,0,0,0-1.169-.688l-3.711.02.39,4.2Z"
                transform="translate(-119.746 -21.702)" />
            <path class="a" fill="#a7b2bf"
                d="M42.177,87.569H42.17v-.038l-7.065.023H33.966L26.9,87.531v.038h-.007l0,.889,0,.906.007,0,.027,6.937a1.208,1.208,0,0,0,1.2,1.207h.012l5.935-.015,6.865.015h.012a1.208,1.208,0,0,0,1.2-1.207l.027-6.937.007,0,0-.906Z"
                transform="translate(-26.894 -82.192)" />
        </g>
    </g>
</svg>