<svg xmlns="http://www.w3.org/2000/svg" width="170" height="157.347" viewBox="0 0 170 157.347">
    <!--    <defs>-->


    <!--        <style>-->
    <!--            .a{fill:none;}.b{fill:#f8f9fb;}.c{fill:#fdfdfd;}.d{fill:#72818d;}.e{fill:#eceff4;}.f{fill:#fff;}.g{clip-path:url(#a);}.h{fill:#f5f7f9;}.i{fill:#bdc9d4;}.j{isolation:isolate;}.k{fill:#f3a72e;}-->

    <!--        </style>-->
    <!--        <clipPath id="a">-->
    <!--            <circle class="a" cx="23" cy="23" r="23" transform="translate(86 34.346)" />-->
    <!--        </clipPath>-->
    <!--    </defs>-->

    <g transform="translate(0 0.001)">


        <ellipse class="b" cx="85" cy="23.5" rx="85" ry="23.5" transform="translate(0 110.346)"
            fill="#eceff4" />
        <rect class="c" width="95" height="118" rx="10" transform="translate(38 16.346)"
            fill="#fdfdfd" />
        <path class="d"
            d="M123,135.6H48a11.263,11.263,0,0,1-11.25-11.25v-98A11.263,11.263,0,0,1,48,15.1h75a11.263,11.263,0,0,1,11.25,11.25v98A11.263,11.263,0,0,1,123,135.6ZM48,17.6a8.76,8.76,0,0,0-8.75,8.75v98A8.76,8.76,0,0,0,48,133.1h75a8.76,8.76,0,0,0,8.75-8.75v-98A8.76,8.76,0,0,0,123,17.6Z"
            fill="#72818d" />
        <rect class="e" width="75" height="8" rx="2" transform="translate(49.001 103.347)"
            fill="#eceff4" />
        <rect class="e" width="75" height="8" rx="2" transform="translate(49.001 82.347)"
            fill="#eceff4" />
        <rect class="e" width="75" height="8" rx="2" transform="translate(49.001 59.347)"
            fill="#eceff4" />
        <rect class="e" width="75" height="8" rx="2" transform="translate(49.001 38.347)"
            fill="#eceff4" />
        <ellipse class="f" cx="34" cy="33.5" rx="34" ry="33.5" transform="translate(75 24.347)"
            fill="#fff" />
        <circle class="f" cx="26" cy="26" r="26" transform="translate(83 31.347)" fill="#fff" />
        <path class="d"
            d="M109,83.347a26,26,0,1,1,26-26A26.029,26.029,0,0,1,109,83.347Zm0-50a24,24,0,1,0,24,24A24.027,24.027,0,0,0,109,33.347Z"
            fill="#bdc9d4" />
        <g class="g">
            <rect class="h" width="39" height="12" rx="4" transform="translate(78 42.347)"
                fill="none" />
            <rect class="h" width="39" height="11" rx="4" transform="translate(78 67.347)"
                fill="none" />
        </g>
        <rect class="f" width="5.757" height="9.594"
            transform="translate(129.534 84.181) rotate(-45)" fill="#fff" />
        <rect class="i" width="11.513" height="22.067" rx="5"
            transform="translate(133.256 91.973) rotate(-45)" fill="#bdc9d4" />
        <path class="d"
            d="M153.465,95.9l-8.532-8.533a5,5,0,0,0-5.224-1.153l-5.536-5.536A34.172,34.172,0,1,0,129.95,84.6l5.688,5.689a5,5,0,0,0,1.154,5.224l8.532,8.532a5,5,0,0,0,7.072,0l1.069-1.07a5,5,0,0,0,0-7.071ZM77.5,57.847a31.5,31.5,0,1,1,31.5,31.5A31.536,31.536,0,0,1,77.5,57.847Zm56.1,24.384,4.663,4.663-1.95,1.95-4.663-4.663ZM151.7,101.2l-1.068,1.07a2.558,2.558,0,0,1-3.536,0l-8.532-8.532a2.5,2.5,0,0,1,0-3.536l1.068-1.07a2.5,2.5,0,0,1,3.536,0l8.532,8.533a2.5,2.5,0,0,1,0,3.535Z"
            fill="#bdc9d4" />
        <g class="j" isolation="isolate">
            <g class="j" isolation="isolate">
                <path class="k"
                    d="M105.617,70.374a3.251,3.251,0,0,1,.257-1.282,3.186,3.186,0,0,1,.707-1.045,3.358,3.358,0,0,1,2.378-.954,3.3,3.3,0,0,1,1.3.257,3.373,3.373,0,0,1,1.055.7,3.327,3.327,0,0,1,.718,1.045,3.235,3.235,0,0,1,0,2.574,3.352,3.352,0,0,1-.718,1.035,3.227,3.227,0,0,1-1.055.686,3.425,3.425,0,0,1-1.3.246,3.472,3.472,0,0,1-1.322-.246,3.207,3.207,0,0,1-2.02-3.013ZM111.665,43.6V55.327a34.7,34.7,0,0,1-.195,3.69q-.2,1.824-.543,3.792h-3.813q-.348-1.966-.544-3.792a34.7,34.7,0,0,1-.194-3.69V43.6Z"
                    fill="#f3a72e" />
            </g>
        </g>
        <path class="d"
            d="M141.136,13.568a1.25,1.25,0,0,1-.823-2.192l6.43-5.609a1.25,1.25,0,1,1,1.643,1.884l-6.43,5.609A1.24,1.24,0,0,1,141.136,13.568Z"
            fill="#72818d" />


        <path class="d"
            d="M144.349,18.059a1.25,1.25,0,0,1-.091-2.5l8.768-.648a1.236,1.236,0,0,1,1.339,1.154,1.251,1.251,0,0,1-1.155,1.339l-8.769.648C144.41,18.058,144.379,18.059,144.349,18.059Z"
            fill="#72818d" />


        <path class="d"
            d="M136.542,10.765a1.25,1.25,0,0,1-1.25-1.25V1.249a1.25,1.25,0,0,1,2.5,0V9.515A1.25,1.25,0,0,1,136.542,10.765Z"
            fill="#72818d" />
    </g>
</svg>