<svg xmlns="http://www.w3.org/2000/svg" width="13.993" height="16.98" viewBox="0 0 13.993 16.98">
    <path class="a" fill="#a7b2bf"
        d="M12.624,0H1.369A1.37,1.37,0,0,0,0,1.368V15.609a1.369,1.369,0,0,0,1.369,1.369H12.624a1.369,1.369,0,0,0,1.369-1.369V1.368A1.37,1.37,0,0,0,12.624,0ZM3.941,6.393h6.084a.609.609,0,1,1,.055,1.216H3.941a.609.609,0,1,1-.055-1.216A.4.4,0,0,1,3.941,6.393Zm-.609,3.65a.609.609,0,0,1,.609-.609h6.084a.609.609,0,0,1,0,1.216H3.941A.609.609,0,0,1,3.333,10.043Zm.055,2.979A.609.609,0,0,1,4,12.414H10.08a.609.609,0,0,1,0,1.216H4A.609.609,0,0,1,3.387,13.022Z"
        transform="translate(0 0.001)" />
</svg>