<svg height="22" viewBox="0 0 22 22" width="22" xmlns="http://www.w3.org/2000/svg">

    <g transform="translate(-15.783 -15.958)">
        <g transform="translate(15.551 15.727)">
            <rect class="a"
                fill="none"
                height="22" transform="translate(0.232 0.232)" width="22" />
            <path class="b" fill="#fff"
                d="M14.128,0H1.533A1.533,1.533,0,0,0,0,1.532V17.469A1.532,1.532,0,0,0,1.533,19H14.128a1.532,1.532,0,0,0,1.533-1.533V1.532A1.533,1.533,0,0,0,14.128,0ZM4.411,7.155H11.22a.681.681,0,1,1,.061,1.361H4.411A.681.681,0,1,1,4.35,7.155.45.45,0,0,1,4.411,7.155ZM3.73,11.24a.681.681,0,0,1,.681-.681H11.22a.681.681,0,0,1,0,1.361H4.411A.682.682,0,0,1,3.73,11.24Zm.061,3.334a.681.681,0,0,1,.681-.681h6.809a.681.681,0,0,1,0,1.361H4.472A.681.681,0,0,1,3.791,14.574Z"
                transform="translate(3.488 1.917)" />
        </g>
    </g>
</svg>