<svg height="24" viewBox="0 0 24 24" width="24" xmlns="http://www.w3.org/2000/svg">

    <rect class="a" height="24" width="24" fill="none"/>
    <g transform="translate(1.269 1.747)">
        <path class="b" fill="#fff"
            d="M20.6,27.2a2.368,2.368,0,0,0-1.736-.724h-.82v-3.28a3.417,3.417,0,0,0-.871-2.1l-1.948-1.948a3.41,3.41,0,0,0-2.1-.871H4.51A1.225,1.225,0,0,0,3.28,19.5v6.97H2.46A2.368,2.368,0,0,0,.724,27.2,2.368,2.368,0,0,0,0,28.931v5.33a.4.4,0,0,0,.122.288.4.4,0,0,0,.288.121H3.28v2.05a1.225,1.225,0,0,0,1.23,1.23h12.3a1.225,1.225,0,0,0,1.23-1.23v-2.05h2.87a.415.415,0,0,0,.41-.41v-5.33A2.367,2.367,0,0,0,20.6,27.2Zm-4.2,9.116H4.92v-3.28H16.4Zm0-8.2H4.92v-8.2h8.2v2.05a1.225,1.225,0,0,0,1.23,1.23H16.4v4.92Zm3.037,1.4a.8.8,0,1,1,.244-.577A.788.788,0,0,1,19.437,29.508Z"
            transform="translate(0 -18.271)" />
    </g>
</svg>