<svg xmlns="http://www.w3.org/2000/svg" width="22" height="22" viewBox="0 0 22 22">
    <!--    <defs>-->
    <!--        <style>.a{fill:none;}.b{fill:#858f9b;}</style>-->
    <!--    </defs>-->
    <rect class="a" width="22" height="22" fill="none" />
    <g transform="translate(2.464 2.075)">
        <path class="b" d="M8.654.515,4.4.532a1.523,1.523,0,0,0-1.33.788L.848,5.35l7.378-.017Z"
            transform="translate(-0.576 -0.495)" fill="#858f9b" />
        <path class="b"
            d="M16.636,5.318,14.386,1.286A1.537,1.537,0,0,0,13.047.5L8.794.521,9.24,5.334Z"
            transform="translate(0.597 -0.498)" fill="#858f9b" />
        <path class="b"
            d="M18.116,5.875V5.831l-8.1.026h-1.3l-8.1-.026v.044H.611V7.925H.619l.031,7.95a1.384,1.384,0,0,0,1.37,1.383h.014l6.8-.017,7.866.017h.014a1.385,1.385,0,0,0,1.37-1.383l.031-7.95h.008V5.875Z"
            transform="translate(-0.611 0.289)" fill="#858f9b" />
    </g>
</svg>