<svg height="18.612" viewBox="0 0 18.575 18.612" width="18.575" xmlns="http://www.w3.org/2000/svg">
    <defs>
        <style>.a{fill:#fff;}</style>
    </defs>
    <path class="a" fill="#fff" d="M9.128.515,4.617.533a1.615,1.615,0,0,0-1.411.836L.848,5.643l7.826-.018Z"
        transform="translate(-0.56 -0.494)" />
    <path class="a" fill="#fff" d="M17.112,5.61,14.726,1.334A1.63,1.63,0,0,0,13.305.5L8.794.522l.474,5.105Z"
        transform="translate(1.167 -0.498)" />
    <path class="a" fill="#fff"
        d="M19.178,5.877V5.831l-8.587.028H9.207L.62,5.831v.046H.611V8.052H.62l.033,8.432a1.468,1.468,0,0,0,1.453,1.467H2.12l7.213-.018,8.343.018h.015a1.469,1.469,0,0,0,1.453-1.467l.033-8.432h.009V5.877Z"
        transform="translate(-0.611 0.661)" />
</svg>