<svg height="28.143" viewBox="0 0 36.354 28.143" width="36.354" xmlns="http://www.w3.org/2000/svg">

    <path class="a" d="M9.145,15.693a2.406,2.406,0,0,0-2.586,2.183,2.378,2.378,0,1,0,2.586-2.183Z"
        transform="translate(1.328 3.183)" fill="#a7b2bf" />
    <path class="a" d="M16.981,15.7c-.067,0-.135-.007-.2-.006a2.352,2.352,0,1,0,.2.006Z"
        transform="translate(2.921 3.185)" fill="#a7b2bf" />
    <path class="a"
        d="M8.835,14.149l.064-.01v-.006c.153-.023.295-.057.439-.065.65-.037,1.3-.067,1.948-.1l1.925-.1,1.973-.1,1.973-.1,1.948-.1c.65-.032,1.3-.07,1.948-.1.546-.023,1.092-.022,1.637-.055.337-.02.689-.069.858-.425a1.764,1.764,0,0,0,.12-.42c.008-.046.016-.091.024-.136.045-.231.087-.462.131-.693q.206-1.106.41-2.21c.12-.622.241-1.243.352-1.865l.035-.19c.12-.674.23-1.35.352-2.023.072-.4.162-.793.241-1.188V3.64a.939.939,0,0,0-.951-.5q-9,.018-18,.008H5.95V3.135h0c-.2-.79-.409-1.573-.609-2.356A1.143,1.143,0,0,0,4.751,0H.521A.993.993,0,0,1,.429.067.841.841,0,0,0,.048,1.074a.737.737,0,0,0,.722.5H3.845c.1.369.191.722.286,1.083L5.29,6.986q.433,1.624.865,3.248c.333,1.244.671,2.486,1,3.729.25.935.492,1.872.742,2.806a.737.737,0,0,0,.7.539H21.36a.607.607,0,0,0,.213-.028.8.8,0,0,0,.488-.973.78.78,0,0,0-.763-.58c-3.893.012-7.786.007-11.679.007a.764.764,0,0,1-.2,0c-.053-.016-.129-.057-.141-.1-.135-.5-.259-.995-.386-1.494l-.064.01m2.215-3.941a.785.785,0,0,1-.581.779h-.01l-.042.01a.809.809,0,0,1-.194.02.782.782,0,0,1-.777-.784V7.1a.781.781,0,0,1,.745-.817h.055a.809.809,0,0,1,.8.8Zm4.721.022a.8.8,0,0,1-1.594.025c0-.019,0-.037,0-.057V7.1a.778.778,0,0,1,.747-.811h.034a.8.8,0,0,1,.812.79v.006q0,1.573,0,3.146Zm4.723-.018a.808.808,0,0,1-.231.575.792.792,0,0,1-1.353-.573V7.088a.779.779,0,0,1,.753-.8H19.7a.766.766,0,0,1,.7.433v.011l.02.045a.884.884,0,0,1,.067.339V8.66c0,.516.007,1.037.006,1.553Z"
        transform="translate(-0.002)" fill="#a7b2bf" />
    <g transform="translate(18.354 10.143)">
        <circle class="b" cx="9" cy="9" r="9" fill="#fff"/>
        <path class="c" fill="#28a745"
            d="M17.938,11a6.938,6.938,0,1,0,6.938,6.938A6.952,6.952,0,0,0,17.938,11Zm2.935,7.739H18.739v2.135a.8.8,0,0,1-1.6,0V18.739H15a.8.8,0,1,1,0-1.6h2.135V15a.8.8,0,1,1,1.6,0v2.135h2.135a.8.8,0,0,1,0,1.6Z"
            transform="translate(-9.087 -9.243)" />
    </g>
</svg>