<svg xmlns="http://www.w3.org/2000/svg" width="16" height="16" viewBox="0 0 16 16">
<!--    <defs>-->
<!--        <style>.a{fill:none;}.b{fill:#eb3b5b;}</style>-->
<!--    </defs>-->
    <rect class="a" width="16" height="16" fill="none"/>
    <g transform="translate(1.816 1.139)">
        <path class="b"
            d="M134.533,5.991a.41.41,0,0,0-.374-.241h-1.643V.411A.411.411,0,0,0,132.106,0h-1.643a.411.411,0,0,0-.411.411v5.34h-1.643a.411.411,0,0,0-.309.681l2.875,3.286a.41.41,0,0,0,.618,0l2.875-3.286A.41.41,0,0,0,134.533,5.991Z"
            transform="translate(137.445 9.858) rotate(180)" fill="#eb3b5b"/>
        <path class="b"
            d="M26.68,352v2.465H17.643V352H16v3.286a.821.821,0,0,0,.822.822H27.5a.821.821,0,0,0,.822-.822V352Z"
            transform="translate(-16 -342.963)" fill="#eb3b5b"/>
    </g>
</svg>