<svg xmlns="http://www.w3.org/2000/svg" width="22" height="22" viewBox="0 0 22 22">
<!--    <defs>-->
<!--        <style>.a{fill:none;}.b{fill:#929daa;}</style>-->
<!--    </defs>-->
    <rect class="a" width="22" height="22" fill="none" />
    <g transform="translate(1.802 1.882)">
        <path class="b" fill="#929daa"
            d="M351.564,621.16a.568.568,0,0,0-.566-.566h-2.831v2.264a.755.755,0,1,1-1.51,0v-2.264h-2.83a.567.567,0,0,0-.566.566v7.171a.567.567,0,0,0,.566.566H351a.568.568,0,0,0,.566-.566Z"
            transform="translate(-343.261 -610.781)" />
        <path class="b" fill="#929daa"
            d="M628.9,621.16a.568.568,0,0,0-.566-.566H625.5v2.264a.755.755,0,1,1-1.51,0v-2.264H621.16a.567.567,0,0,0-.566.566v7.171a.567.567,0,0,0,.566.566h7.171a.568.568,0,0,0,.566-.566Z"
            transform="translate(-610.781 -610.781)" />
        <path class="b" fill="#929daa"
            d="M490.231,343.827a.568.568,0,0,0-.566-.566h-2.83v2.264a.755.755,0,1,1-1.51,0v-2.264h-2.831a.568.568,0,0,0-.566.566V351a.567.567,0,0,0,.566.566h7.171a.568.568,0,0,0,.566-.566Z"
            transform="translate(-477.022 -343.261)" />
    </g>
</svg>