<svg xmlns="http://www.w3.org/2000/svg" xmlns:xlink="http://www.w3.org/1999/xlink" width="140"
    height="129" viewBox="0 0 140 129">
<!--    <defs>-->
<!--        <style>-->
<!--            .a{fill:#f8f9fb;}.b{clip-path:url(#a);}.c{fill:#cfd6de;}.d{fill:#d9dfe5;}.e{fill:#edf1f7;}.f{fill:#e4eaf0;}.
f,.h,.i,.j,.k,.l{fill-rule:evenodd;}.g{fill:#dce1e8;}.h{fill:#afb8c4;}.i{fill:#929daa;}.j{fill:#dfe5e9;}.k{fill:#b6bec9;}
    .l{fill:#c1c9d3;}.m{fill:#fff;}-->
<!--        </style>-->
<!--        <clipPath id="a">-->
<!--            <rect class="a" width="140" height="129" transform="translate(258 80)" />-->
<!--        </clipPath>-->
<!--    </defs>-->
    <g class="b" transform="translate(-258 -80)" fill="#f8f9fb">
        <g transform="translate(139.233 -13.936)">
            <rect class="c" width="87.681" height="112.498" rx="1.077"
                transform="translate(144.204 145.814)" fill="#cfd6de"/>
            <rect class="d" width="75.882" height="100.699"
                transform="translate(150.104 151.713)" fill="#d9dfe5" />
            <rect class="e" width="72.795" height="97.613" transform="translate(151.647 153.257)" fill="#edf1f7" />
            <path class="f" d="M154.537,147.928l60.408,35.084V144.228H154.522Z"
                transform="translate(9.498 9.029)" fill="#e4eaf0" />
            <g transform="translate(158.349 168.788)">
                <rect class="g" width="50.709" height="4.153" rx="1" fill="#dce1e8"/>
                <rect class="g" width="50.709" height="4.154" rx="1"
                    transform="translate(0 8.024)" fill="#dce1e8" />
                <rect class="g" width="50.709" height="4.154" rx="1"
                    transform="translate(0 16.048)" fill="#dce1e8"/>
                <rect class="g" width="50.709" height="4.155" rx="1"
                    transform="translate(0 24.072)" fill="#dce1e8"/>
                <g transform="translate(55.14)">
                    <rect class="g" width="4.251" height="4.153" rx="1" fill="#dce1e8"/>
                    <rect class="g" width="4.251" height="4.154" rx="1"
                        transform="translate(0 8.024)" fill="#dce1e8"/>
                    <rect class="g" width="4.251" height="4.154" rx="1"
                        transform="translate(0 16.048)" fill="#dce1e8"/>
                    <rect class="g" width="4.251" height="4.155" rx="1"
                        transform="translate(0 24.072)" fill="#dce1e8"/>
                    <rect class="g" width="4.251" height="4.155" rx="1"
                        transform="translate(0 32.285)" fill="#dce1e8"/>
                </g>
            </g>
            <path class="h"
                d="M155.482,138.468h47.247a1.991,1.991,0,0,1,1.986,1.986v1.632c.042-.02.045,7.418,0,7.43v1.728a2,2,0,0,1-1.986,1.986H155.482a1.993,1.993,0,0,1-1.986-1.986v-1.728c.015.058.05-7.384,0-7.43v-1.632A1.991,1.991,0,0,1,155.482,138.468Z"
                transform="translate(8.553 3.727)" fill="#afb8c4"/>
            <path class="i"
                d="M156.061,140.395c.061.014-.015,7.49-.042,7.361h41.528c-.538-1.2.054-7.383-.042-7.361Z"
                transform="translate(10.875 5.501)" fill="#929daa"/>
            <path class="j"
                d="M156.477,140.623c.006-.035-.268,6.88-.213,6.923h41.055c.021.008-.182-6.868-.219-6.923Z"
                transform="translate(11.103 5.71)" fill-rule="evenodd"/>
            <path class="k"
                d="M161.467,142.195a1.141,1.141,0,0,0,1.139-1.137v-5.5a1.14,1.14,0,0,1,1.137-1.139h16.051a1.14,1.14,0,0,1,1.137,1.139v5.5a1.141,1.141,0,0,0,1.139,1.137Zm5.742-5.11a1.224,1.224,0,0,0-1.221,1.221v0a1.225,1.225,0,0,0,1.221,1.221h9.17a1.226,1.226,0,0,0,1.223-1.221v0a1.226,1.226,0,0,0-1.223-1.221Z"
                transform="translate(15.89)" fill="#b6bec9"/>
            <g transform="translate(200.95 189.402)">
                <path class="l"
                    d="M171.833,197.486a19.415,19.415,0,1,0,7.106-26.521A19.415,19.415,0,0,0,171.833,197.486Z"
                    transform="translate(-169.228 -168.361)" fill="#c1c9d3"/>
                <g transform="translate(21.799 6.437) rotate(60)">
                    <path class="m"
                        d="M15.747,4.781C17.79,5.96,18.7,8.416,17.635,11.326l2.342,1.352-1.3,2.251L16.5,13.67a10.715,10.715,0,0,1-3.244,3.336l-2.292-2.243a9.358,9.358,0,0,0,3.214-3.23c.756-1.31.769-2.5-.15-3.033-.873-.5-1.852-.089-3.407,1.283-2.246,1.979-4.36,2.99-6.589,1.7C2.007,10.318,1.246,7.979,2.181,5.24L0,3.981,1.3,1.73,3.317,2.895A9.56,9.56,0,0,1,6,0l2.21,2.166A8.747,8.747,0,0,0,5.515,5.021c-.862,1.493-.5,2.348.146,2.719.759.438,1.7-.089,3.568-1.615C11.777,3.957,13.68,3.587,15.747,4.781Z"
                        transform="translate(0 0)" fill="#fff"/>
                </g>
            </g>
        </g>
    </g>
</svg>