<svg xmlns="http://www.w3.org/2000/svg" width="22.419" height="21" viewBox="0 0 22.419 21">
  <g id="cart-multicolor-blue" transform="translate(-427.231 -144.275)">
    <path id="Path_1677" data-name="Path 1677" d="M895.119,301.6c0-.467,0-.933,0-1.4a.771.771,0,0,0-.053-.282c-.005-.013-.011-.027-.018-.04l0-.01a.681.681,0,0,0-.606-.38.7.7,0,0,0-.711.727q0,1.376,0,2.752a.7.7,0,0,0,1.193.515.721.721,0,0,0,.2-.505C895.12,302.521,895.119,302.062,895.119,301.6Z" transform="translate(-449.675 -149.619)" fill="none"/>
    <path id="Path_1678" data-name="Path 1678" d="M432.472,147.061h.046c-.182-.7-.363-1.4-.541-2.1a1.014,1.014,0,0,0-.522-.691h-3.761a.785.785,0,0,1-.082.06.744.744,0,0,0-.339.895.654.654,0,0,0,.645.444h2.735c.087.328.17.644.254.96q.514,1.927,1.029,3.854c.257.962.511,1.925.768,2.886.3,1.106.6,2.21.893,3.316.222.831.438,1.664.66,2.5a.656.656,0,0,0,.62.479h11.346a.557.557,0,0,0,.19-.025.711.711,0,0,0,.434-.865.693.693,0,0,0-.679-.515c-3.461.011-6.923.006-10.384.006a.647.647,0,0,1-.174,0c-.047-.014-.114-.05-.125-.09-.12-.441-.23-.885-.343-1.328l-.057.009Z" transform="translate(0 0)" fill="#bde1ef"/>
    <path id="Path_1679" data-name="Path 1679" d="M623.905,609.573a2.141,2.141,0,0,0-2.3,1.942,2.115,2.115,0,0,0,4.214.36A2.128,2.128,0,0,0,623.905,609.573Z" transform="translate(-187.361 -448.515)" fill="#bde1ef"/>
    <path id="Path_1680" data-name="Path 1680" d="M856.689,609.8a2.1,2.1,0,0,0-2.1,1.91,2.115,2.115,0,1,0,4.215.345A2.1,2.1,0,0,0,856.689,609.8Z" transform="translate(-411.941 -448.738)" fill="#bde1ef"/>
    <path id="Path_1681" data-name="Path 1681" d="M588.928,221.549q-8,.016-16,.007h-.275l0-.012H572.6l2.614,9.793.057-.009v-.006c.135-.021.262-.05.39-.057.577-.033,1.154-.06,1.732-.089l1.71-.087,1.754-.088,1.754-.087,1.732-.087c.577-.029,1.154-.062,1.732-.086.485-.02.971-.019,1.456-.049.3-.019.613-.061.763-.377a1.569,1.569,0,0,0,.109-.374c.007-.04.014-.081.022-.121.039-.205.078-.41.116-.616q.183-.982.365-1.965c.1-.553.211-1.1.313-1.658l.031-.169c.108-.6.2-1.2.313-1.8.064-.354.144-.7.217-1.057v-.562A.837.837,0,0,0,588.928,221.549Zm-12.263,6.978-.009,0-.037.009a.756.756,0,0,1-.172.019.694.694,0,0,1-.69-.726q0-1.378,0-2.756a.7.7,0,0,1,.711-.727.719.719,0,0,1,.713.713q0,1.387,0,2.774A.7.7,0,0,1,576.665,228.528Zm4.714-.674a.7.7,0,0,1-.366.615.706.706,0,0,1-.344.089.694.694,0,0,1-.706-.731q0-.689,0-1.378c0-.459,0-.919,0-1.378a.693.693,0,0,1,.695-.721.713.713,0,0,1,.722.709Q581.382,226.456,581.379,227.854Zm4.2-.016a.72.72,0,0,1-.206.511.7.7,0,0,1-1.2-.509q0-1.389,0-2.777a.692.692,0,0,1,.7-.714.68.68,0,0,1,.625.385l0,.01c.006.013.012.026.018.04a.787.787,0,0,1,.06.3c0,.459,0,.917,0,1.376S585.58,227.38,585.578,227.838Z" transform="translate(-140.128 -74.483)" fill="#2eb2e8"/>
  </g>
</svg>
