<svg xmlns="http://www.w3.org/2000/svg" width="24" height="23" viewBox="0 0 24 23">
<!--    <defs>-->
<!--    <style>.a{fill:none;}.b{fill:#929daa;}.c{fill:#fff;}.d{fill:#eb3b5b;}</style>-->
<!--</defs>-->
    <g transform="translate(-20 -721)">
        <g transform="translate(20 721)"><rect class="a" width="22" height="22" fill="none"/>
            <g transform="translate(2.464 2.075)">
                <path class="b" d="M8.654.515,4.4.532a1.523,1.523,0,0,0-1.33.788L.848,5.35l7.378-.017Z" transform="translate(-0.576 -0.495)" fill="#929daa"/>
                <path class="b" d="M16.636,5.318,14.386,1.286A1.537,1.537,0,0,0,13.047.5L8.794.521,9.24,5.334Z" transform="translate(0.597 -0.498)" fill="#929daa"/>
                <path class="b" d="M18.116,5.875V5.831l-8.1.026h-1.3l-8.1-.026v.044H.611V7.925H.619l.031,7.95a1.384,1.384,0,0,0,1.37,1.383h.014l6.8-.017,7.866.017h.014a1.385,1.385,0,0,0,1.37-1.383l.031-7.95h.008V5.875Z" transform="translate(-0.611 0.289)" fill="#929daa"/></g>
            <g transform="translate(-10.125 -9.203)">
                <circle class="c" cx="7" cy="7" r="7" transform="translate(20.125 18.203)" fill= "#fff"/>
                <g transform="translate(21.466 19.496)" fill="#fff">
                <path class="d" d="M25.508,18.216A5.584,5.584,0,1,0,31.093,23.8,5.591,5.591,0,0,0,25.508,18.216Zm2.619,7.531-.785.785-1.781-1.781-1.781,1.781-.785-.785,1.781-1.781-1.781-1.78.785-.785,1.781,1.78,1.781-1.78.785.785-1.781,1.78Z" transform="translate(-19.924 -18.216)" fill="#eb3b5b"/>
                    <path class="c" d="M27.036,21.083l-1.781,1.781-1.781-1.781-.785.785,1.781,1.781L22.688,25.43l.785.785,1.781-1.781,1.781,1.781.785-.785L26.04,23.649l1.781-1.781Z" transform="translate(-19.618 -17.899)" fill="#fff"/>
                </g>
            </g></g></g></svg>