<svg xmlns="http://www.w3.org/2000/svg" width="26" height="26" viewBox="0 0 26 26">

    <g transform="translate(27.644 -29.685)">
        <g transform="translate(-27.771 29.557)">
            <rect class="a" width="26" height="26" transform="translate(0.128 0.128)" fill="none"/>
            <g transform="translate(1.513 5.001)">
                <path class="b" d="M.415,70.175H18.248v2.488a.421.421,0,0,0,.713.3l4.147-4.147a.439.439,0,0,0,0-.6l-4.134-4.134a.487.487,0,0,0-.311-.13.4.4,0,0,0-.414.415v2.488H.415a.4.4,0,0,0-.292.123A.4.4,0,0,0,0,67.272V69.76a.4.4,0,0,0,.123.292A.4.4,0,0,0,.415,70.175Z" transform="translate(0 -63.954)" fill="#28a745"/>
                <path class="b" d="M22.81,249.585H4.977V247.1a.42.42,0,0,0-.415-.415.4.4,0,0,0-.3.117L.117,250.946a.405.405,0,0,0-.117.3.387.387,0,0,0,.117.285l4.134,4.147a.488.488,0,0,0,.311.129.42.42,0,0,0,.415-.415V252.9H22.81a.42.42,0,0,0,.415-.415V250a.42.42,0,0,0-.415-.414Z" transform="translate(0 -238.387)" fill="#28a745"/>
            </g></g></g></svg>