<svg id="gear-multicolor" xmlns="http://www.w3.org/2000/svg" width="20" height="20" viewBox="0 0 20 20">
  <g id="Group_4119" data-name="Group 4119" transform="translate(7.07 7.07)">
    <g id="Group_4118" data-name="Group 4118">
      <path id="Path_309" data-name="Path 309" d="M183.93,181a2.93,2.93,0,1,0,2.93,2.93A2.933,2.933,0,0,0,183.93,181Z" transform="translate(-181 -181)" fill="#99AAC8"/>
    </g>
  </g>
  <g id="Group_4121" data-name="Group 4121">
    <g id="Group_4120" data-name="Group 4120">
      <path id="Path_310" data-name="Path 310" d="M20,11.331V8.669a.391.391,0,0,0-.315-.383l-2.4-.472a7.53,7.53,0,0,0-.59-1.42l1.335-2a.391.391,0,0,0-.049-.493L16.1,2.015a.391.391,0,0,0-.493-.049l-2,1.335a7.528,7.528,0,0,0-1.42-.59l-.472-2.4A.391.391,0,0,0,11.331,0H8.669a.391.391,0,0,0-.383.315l-.472,2.4a7.53,7.53,0,0,0-1.42.59l-2-1.335a.391.391,0,0,0-.493.049L2.015,3.9a.391.391,0,0,0-.049.493l1.335,2a7.528,7.528,0,0,0-.59,1.42l-2.4.472A.391.391,0,0,0,0,8.669v2.663a.391.391,0,0,0,.315.383l2.4.472a7.53,7.53,0,0,0,.59,1.42l-1.335,2a.391.391,0,0,0,.049.493L3.9,17.985a.391.391,0,0,0,.493.049l2-1.335a7.528,7.528,0,0,0,1.42.59l.472,2.4A.391.391,0,0,0,8.669,20h2.663a.391.391,0,0,0,.383-.315l.472-2.4a7.53,7.53,0,0,0,1.42-.59l2,1.335a.391.391,0,0,0,.493-.049L17.985,16.1a.391.391,0,0,0,.049-.493l-1.335-2a7.528,7.528,0,0,0,.59-1.42l2.4-.472A.391.391,0,0,0,20,11.331ZM10.136,14.1A4.1,4.1,0,1,1,14.1,10.136,4.106,4.106,0,0,1,10.136,14.1Z" fill="#42526E"/>
    </g>
  </g>
</svg>
