<svg xmlns="http://www.w3.org/2000/svg" xmlns:xlink="http://www.w3.org/1999/xlink" width="20.365"
    height="13.807" viewBox="0 0 20.365 13.807">
        <linearGradient id="a" x1="0.5" y1="2.044" x2="0.5" y2="-0.859"
            gradientUnits="objectBoundingBox">
            <stop offset="0" stop-color="#c2e085" />
            <stop offset="1" stop-color="#4fb97a" />
        </linearGradient>
        <linearGradient id="b" y1="1.837" y2="-0.395" xlink:href="#a" />
        <linearGradient id="c" x1="0.5" y1="4.177" x2="0.5" y2="0.103"
            gradientUnits="objectBoundingBox">
            <stop offset="0" stop-color="#4ac297" />
            <stop offset="1" stop-color="#0b9560" />
        </linearGradient>
        <linearGradient id="d" y1="3.512" y2="0.175" xlink:href="#c" />
        <linearGradient id="e" y1="2.652" y2="0.268" xlink:href="#c" />
        <linearGradient id="f" y1="10.006" y2="-1.092" xlink:href="#a" />
        <linearGradient id="g" y1="8.014" y2="-3.084" xlink:href="#a" />
        <linearGradient id="h" y1="7.77" y2="-2.945" xlink:href="#a" />
        <linearGradient id="i" y1="6.261" y2="1.606" xlink:href="#a" />
        <linearGradient id="j" y1="10.014" y2="-1.084" xlink:href="#a" />
        <linearGradient id="k" y1="4.81" y2="0.295" xlink:href="#a" />
    <g transform="translate(-25.782 -210.017)">
        <g class="a" transform="translate(25.782 215.119)" >
            <path class="b"
                d="M.663,0H15.258a.663.663,0,0,1,.663.663V7.3a.663.663,0,0,1-.663.663H.663A.663.663,0,0,1,0,7.3V.663A.663.663,0,0,1,.663,0Z"
                transform="translate(0 0.02)" fill="url(#a)"/>
            <path class="c"
                d="M.663,7.949H15.258a.663.663,0,0,0,.663-.663V.652A.663.663,0,0,0,15.374,0C14.877,2.949,12.306,8.424,0,6.873v.413A.663.663,0,0,0,.663,7.949Z"
                transform="translate(0 0.032)" fill="url(#b)"/>
            <g transform="translate(5.473 1.513)">
                <path class="d"
                    d="M.811,2.912A.813.813,0,0,1,0,2.1a.166.166,0,1,1,.332,0,.479.479,0,1,0,.479-.479A.811.811,0,1,1,1.622.811a.166.166,0,1,1-.332,0,.479.479,0,1,0-.479.479.811.811,0,0,1,0,1.622Z"
                    transform="translate(1.677 1.032)" fill="url(#c)"/>
                <path class="e"
                    d="M.166,3.556A.166.166,0,0,1,0,3.39V.166a.166.166,0,1,1,.332,0V3.39A.166.166,0,0,1,.166,3.556Z"
                    transform="translate(2.322 0.71)" fill="url(#d)"/>
                <path class="f"
                    d="M2.488,4.976A2.488,2.488,0,1,1,4.976,2.488,2.488,2.488,0,0,1,2.488,4.976Zm0-4.644A2.156,2.156,0,1,0,4.644,2.488,2.156,2.156,0,0,0,2.488.332Z" fill="url(#e)"/>
            </g>
            <path class="g" d="M1.99,0H0A2.654,2.654,0,0,0,2.654,2.654V.663A.663.663,0,0,0,1.99,0Z"
                transform="translate(13.268 0.02)" fill="url(#f)"/>
            <path class="h" d="M0,0V1.99a.663.663,0,0,0,.663.663h1.99A2.654,2.654,0,0,0,0,0Z"
                transform="translate(0.02 5.307)" fill="url(#g)"/>
            <path class="i"
                d="M.663,1.058h1.99A2.657,2.657,0,0,0,2.521.229C1.73.186.891.111,0,0V.39a.663.663,0,0,0,.658.668Z"
                transform="translate(0.02 6.903)" fill="url(#h)"/>
            <path class="j"
                d="M1.3,2.642V.652A.663.663,0,0,0,.756,0,8.026,8.026,0,0,1,0,2.3,2.643,2.643,0,0,0,1.3,2.642Z"
                transform="translate(14.618 0.032)" fill="url(#i)"/>
            <path class="k" d="M0,.663v1.99A2.654,2.654,0,0,0,2.654,0H.663A.663.663,0,0,0,0,.663Z"
                transform="translate(0.02)" fill="url(#j)"/>
            <path class="l" d="M0,2.654H1.99a.663.663,0,0,0,.663-.663V0A2.654,2.654,0,0,0,0,2.654Z"
                transform="translate(13.288 5.307)" fill="url(#k)"/>
        </g>
        <g transform="matrix(0.966, 0.259, -0.259, 0.966, 28.195, 210.011)">
            <path class="b"
                d="M.775,0H17.817a.775.775,0,0,1,.775.775V8.521a.775.775,0,0,1-.775.775H.775A.775.775,0,0,1,0,8.521V.775A.775.775,0,0,1,.775,0Z"
                transform="translate(0 0.023)" fill="url(#a)"/>
            <path class="c"
                d="M.775,9.282H17.817a.775.775,0,0,0,.775-.775V.761A.775.775,0,0,0,17.952,0C17.371,3.443,14.369,9.836,0,8.025v.482A.775.775,0,0,0,.775,9.282Z"
                transform="translate(0 0.037)" fill="url(#b)"/>
            <g transform="translate(6.391 1.766)">
                <path class="d"
                    d="M.947,3.4A.949.949,0,0,1,0,2.454a.194.194,0,1,1,.387,0,.56.56,0,1,0,.56-.56A.947.947,0,1,1,1.894.947a.194.194,0,1,1-.387,0,.56.56,0,1,0-.56.56.947.947,0,0,1,0,1.894Z"
                    transform="translate(1.958 1.205)" fill="url(#c)"/>
                <path class="e"
                    d="M.194,4.152A.194.194,0,0,1,0,3.958V.194a.194.194,0,1,1,.387,0V3.958A.194.194,0,0,1,.194,4.152Z"
                    transform="translate(2.711 0.829)"  fill="url(#d)"/>
                <path class="f"
                    d="M2.9,5.81a2.9,2.9,0,1,1,2.9-2.9A2.9,2.9,0,0,1,2.9,5.81ZM2.9.387A2.518,2.518,0,1,0,5.422,2.9,2.518,2.518,0,0,0,2.9.387Z" />
            </g>
            <path class="g" d="M2.324,0H0A3.1,3.1,0,0,0,3.1,3.1V.775A.775.775,0,0,0,2.324,0Z"
                transform="translate(15.493 0.023)" fill="url(#f)"/>
            <path class="h" d="M0,0V2.324A.775.775,0,0,0,.775,3.1H3.1A3.1,3.1,0,0,0,0,0Z"
                transform="translate(0.023 6.197)" fill="url(#g)"/>
            <path class="i"
                d="M.775,1.236H3.1A3.1,3.1,0,0,0,2.944.267C2.02.217,1.04.13,0,0V.455a.775.775,0,0,0,.769.78Z"
                transform="translate(0.023 8.06)" fill="url(#h)"/>
            <path class="j"
                d="M1.522,3.085V.761A.775.775,0,0,0,.883,0,9.372,9.372,0,0,1,0,2.684,3.086,3.086,0,0,0,1.522,3.085Z"
                transform="translate(17.069 0.037)" fill="url(#i)"/>
            <path class="k" d="M0,.775V3.1A3.1,3.1,0,0,0,3.1,0H.775A.775.775,0,0,0,0,.775Z"
                transform="translate(0.023)" fill="url(#j)"/>
            <path class="l" d="M0,3.1H2.324A.775.775,0,0,0,3.1,2.324V0A3.1,3.1,0,0,0,0,3.1Z"
                transform="translate(15.516 6.197)" fill="url(#k)"/>
        </g>
    </g>
</svg>