<svg xmlns="http://www.w3.org/2000/svg" width="24.867" height="17.584" viewBox="0 0 24.867 17.584"><defs><style>.a{fill:#6b7280;}</style></defs><path class="a" d="M12.434,43.115A17.468,17.468,0,0,0,0,48.265L1.433,49.7a15.556,15.556,0,0,1,22,0l1.433-1.433A17.468,17.468,0,0,0,12.434,43.115Z" transform="translate(0 -43.115)"/><path class="a" d="M44.812,110.071l1.433,1.433a10.2,10.2,0,0,1,14.43,0l1.433-1.433a12.231,12.231,0,0,0-17.3,0Z" transform="translate(-41.027 -101.136)"/><path class="a" d="M89.627,171.883l1.433,1.433a4.851,4.851,0,0,1,6.86,0l1.433-1.433a6.878,6.878,0,0,0-9.727,0Z" transform="translate(-82.057 -159.162)"/><circle class="a" cx="1.183" cy="1.183" r="1.183" transform="translate(11.251 15.219)"/></svg>