<svg xmlns="http://www.w3.org/2000/svg" width="25.019" height="20.506" viewBox="0 0 25.019 20.506">
  <g id="stock-multicolor" transform="translate(0 -46.185)">
    <g id="Group_5208" data-name="Group 5208" transform="translate(13.541 46.185)">
      <g id="Group_5207" data-name="Group 5207" transform="translate(0 0)">
        <path id="Path_1796" data-name="Path 1796" d="M288.1,47.335l-2.335-.927a3.129,3.129,0,0,0-4.064,1.754l-4.611,11.61a4.222,4.222,0,0,1,1.383.549l4.611-11.61a1.641,1.641,0,0,1,2.131-.92l2.335.927a.744.744,0,0,0,.549-1.383Z" transform="translate(-277.094 -46.185)" fill="#f25d27"/>
      </g>
    </g>
    <g id="Group_5210" data-name="Group 5210" transform="translate(9.93 61.172)">
      <g id="Group_5209" data-name="Group 5209" transform="translate(0 0)">
        <path id="Path_1797" data-name="Path 1797" d="M206.974,353.091a2.758,2.758,0,1,0,1.545,3.582A2.761,2.761,0,0,0,206.974,353.091Z" transform="translate(-203.197 -352.896)" fill="#fed5c7"/>
      </g>
    </g>
    <g id="Group_5212" data-name="Group 5212" transform="translate(0 50.852)">
      <g id="Group_5211" data-name="Group 5211" transform="translate(0 0)">
        <path id="Path_1798" data-name="Path 1798" d="M13.786,145.319a.744.744,0,0,0-.409-.4L5.4,141.754a.744.744,0,0,0-.966.417l-2.926,7.367-.487-.193a.744.744,0,0,0-.549,1.383l1.1.437a.742.742,0,0,0,.076.036l6.882,2.733a4.3,4.3,0,0,1,.214-.721,4.251,4.251,0,0,1,3.179-2.609l1.872-4.715A.743.743,0,0,0,13.786,145.319ZM9.7,146.969a.743.743,0,0,1-.966.417l-1.644-.653a.744.744,0,0,1,.549-1.383L9.281,146A.744.744,0,0,1,9.7,146.969Z" transform="translate(0 -141.701)" fill="#f25d27"/>
      </g>
    </g>
  </g>
</svg>
