<svg xmlns="http://www.w3.org/2000/svg" width="18.579" height="18.579" viewBox="0 0 18.579 18.579">
  <g id="back-arrow-multicolor" transform="translate(-0.007 0)">
    <g id="Group_5224" data-name="Group 5224" transform="translate(0.007 0)">
      <path id="Path_1830" data-name="Path 1830" d="M7.305,4V.663A.664.664,0,0,0,6.149.219L.177,6.855a.664.664,0,0,0-.021.863l5.972,7.3A.664.664,0,0,0,7.305,14.6V11.291c5.242.171,8.513,2.411,9.988,6.835a.664.664,0,0,0,.629.453.643.643,0,0,0,.107-.009.664.664,0,0,0,.557-.655C18.586,10.1,13.882,4.361,7.305,4Z" transform="translate(-0.007 0)" fill="#f25d27"/>
    </g>
  </g>
</svg>
