<svg xmlns="http://www.w3.org/2000/svg" width="19.295" height="18.701" viewBox="0 0 19.295 18.701">
  <g id="invoice-color" transform="translate(-595.992 -589.652)">
    <g id="invoice-color-2" data-name="invoice-color" transform="translate(595.992 589.664)">
      <g id="Group_4999" data-name="Group 4999">
        <g id="Group_4996" data-name="Group 4996">
          <g id="Group_4995" data-name="Group 4995">
            <path id="Path_1684" data-name="Path 1684" d="M17.226,0H2.756A2.531,2.531,0,0,0,0,2.19V18.138a.624.624,0,0,0,.689.547h13.78a.624.624,0,0,0,.689-.547V5.474l2.756-2.737Z" fill="#3b7ad9"/>
            <g id="_10_video_camera" data-name="10 video camera">
              <g id="Path_2035" data-name="Path 2035">
                <path id="Path_2036" data-name="Path 2036" d="M6.429,13.057,3.647,10.266,4.709,9.207l1.722,1.727L10.7,6.665l1.061,1.061Z" fill="#b6d2fe"/>
              </g>
            </g>
          </g>
        </g>
        <g id="Group_4998" data-name="Group 4998">
          <g id="Group_4997" data-name="Group 4997">
            <path id="Path_1685" data-name="Path 1685" d="M18.355.348A1.988,1.988,0,0,0,17.225,0a2.064,2.064,0,0,0-2.067,2.061V6.893h3.448A.688.688,0,0,0,19.3,6.2h0V2.07A2.027,2.027,0,0,0,18.355.348Z" fill="#b6d2fe"/>
          </g>
        </g>
      </g>
    </g>
  </g>
</svg>
