<svg xmlns="http://www.w3.org/2000/svg" width="16" height="16" viewBox="0 0 16 16">
<!--    <defs><style>.a{fill:none;}.b{fill:#929daa;}</style>-->
<!--    </defs>-->
    <rect class="a" width="16" height="16" fill="none"/>
    <g transform="translate(0.938 0.937)">
        <ellipse class="b" cx="6" cy="2" rx="6" ry="2" transform="translate(0.063 0.063)" fill="#929daa"/>
        <path class="b" d="M4.649,9.838A5.983,5.983,0,0,1,6.464,7.609c-.375.032-.753.053-1.132.053A9.116,9.116,0,0,1,0,6.253v1.41C0,8.78,2.027,9.7,4.649,9.838Z" transform="translate(0.008 -2.337)" fill="#929daa"/>
        <path class="b" d="M4.077,14.231a5.927,5.927,0,0,1,.228-1.613A8.222,8.222,0,0,1,0,11.253v1.41C0,13.7,1.753,14.569,4.106,14.8,4.089,14.611,4.077,14.422,4.077,14.231Z" transform="translate(0.008 -4.2)" fill="#929daa"/>
        <path class="b" d="M13.018,8a5.018,5.018,0,1,0,5.018,5.018A5.024,5.024,0,0,0,13.018,8Zm-.238,4.548h.477a1.331,1.331,0,0,1,.232,2.642v.494a.47.47,0,1,1-.941,0v-.47h-.627a.47.47,0,0,1,0-.941h1.336a.392.392,0,0,0,0-.784H12.78a1.331,1.331,0,0,1-.232-2.642v-.494a.47.47,0,0,1,.941,0v.47h.627a.47.47,0,0,1,0,.941H12.78a.392.392,0,0,0,0,.784Z" transform="translate(-2.974 -2.988)" fill="#929daa"/>
    </g></svg>