<svg xmlns="http://www.w3.org/2000/svg" width="20" height="20" viewBox="0 0 20 20">
  <g id="variant-multicolor" transform="translate(-343.261 -343.261)">
    <path id="Path_1788" data-name="Path 1788" d="M352.428,621.219a.627.627,0,0,0-.625-.625h-3.125v2.5a.833.833,0,1,1-1.667,0v-2.5h-3.125a.626.626,0,0,0-.625.625v7.917a.626.626,0,0,0,.625.625H351.8a.627.627,0,0,0,.625-.625Z" transform="translate(0 -266.5)" fill="#f25d27"/>
    <path id="Path_1789" data-name="Path 1789" d="M629.761,621.219a.627.627,0,0,0-.625-.625h-3.125v2.5a.833.833,0,0,1-1.667,0v-2.5h-3.125a.626.626,0,0,0-.625.625v7.917a.626.626,0,0,0,.625.625h7.917a.627.627,0,0,0,.625-.625Z" transform="translate(-266.5 -266.5)" fill="#f25d27"/>
    <path id="Path_1790" data-name="Path 1790" d="M491.095,343.886a.627.627,0,0,0-.625-.625h-3.125v2.5a.833.833,0,1,1-1.667,0v-2.5h-3.125a.627.627,0,0,0-.625.625V351.8a.626.626,0,0,0,.625.625h7.917a.627.627,0,0,0,.625-.625Z" transform="translate(-133.25)" fill="#f25d27"/>
    <path id="Path_1791" data-name="Path 1791" d="M578.761,346.594a.834.834,0,0,0,.833-.833v-2.5h-1.667v2.5A.834.834,0,0,0,578.761,346.594Z" transform="translate(-225.5)" fill="#fed5c7"/>
    <path id="Path_1792" data-name="Path 1792" d="M440.094,623.927a.834.834,0,0,0,.833-.833v-2.5h-1.667v2.5A.834.834,0,0,0,440.094,623.927Z" transform="translate(-92.25 -266.5)" fill="#fed5c7"/>
    <path id="Path_1793" data-name="Path 1793" d="M717.427,623.927a.834.834,0,0,0,.833-.833v-2.5h-1.667v2.5A.834.834,0,0,0,717.427,623.927Z" transform="translate(-358.75 -266.5)" fill="#fed5c7"/>
  </g>
</svg>
