<svg xmlns="http://www.w3.org/2000/svg" width="15.222" height="18.245" viewBox="0 0 15.222 18.245">
    <path class="a" d="M91.426,8.789A4.252,4.252,0,0,0,94.533,7.5a4.252,4.252,0,0,0,1.287-3.107,4.253,4.253,0,0,0-1.287-3.107,4.393,4.393,0,0,0-6.214,0,4.252,4.252,0,0,0-1.287,3.107A4.252,4.252,0,0,0,88.319,7.5,4.253,4.253,0,0,0,91.426,8.789Zm0,0" transform="translate(-83.93 0)" fill="#929daa"/>
    <path class="a" d="M15.185,252.533a10.855,10.855,0,0,0-.148-1.153,9.083,9.083,0,0,0-.284-1.159,5.723,5.723,0,0,0-.476-1.081,4.078,4.078,0,0,0-.719-.936,3.167,3.167,0,0,0-1.032-.649,3.567,3.567,0,0,0-1.318-.238,1.338,1.338,0,0,0-.714.3c-.214.14-.465.3-.744.48a4.264,4.264,0,0,1-.963.424,3.739,3.739,0,0,1-2.355,0,4.256,4.256,0,0,1-.962-.424c-.277-.177-.527-.338-.745-.48a1.336,1.336,0,0,0-.714-.3,3.562,3.562,0,0,0-1.318.239,3.163,3.163,0,0,0-1.032.648,4.081,4.081,0,0,0-.718.936,5.734,5.734,0,0,0-.476,1.081,9.1,9.1,0,0,0-.283,1.159,10.815,10.815,0,0,0-.148,1.153c-.024.349-.036.711-.036,1.077A3.029,3.029,0,0,0,.9,255.9a3.239,3.239,0,0,0,2.319.846H12a3.238,3.238,0,0,0,2.318-.846,3.028,3.028,0,0,0,.9-2.292c0-.368-.013-.73-.037-1.078Zm0,0" transform="translate(0 -238.503)" fill="#929daa"/>
</svg>