<svg xmlns="http://www.w3.org/2000/svg" width="17.708" height="17.677" viewBox="0 0 17.708 17.677">
    <path class="a" d="M1.61,0H6.439a1.61,1.61,0,0,1,1.61,1.61V6.439a1.61,1.61,0,0,1-1.61,1.61H1.61A1.61,1.61,0,0,1,0,6.439V1.61A1.61,1.61,0,0,1,1.61,0Z" transform="translate(0 0)" fill="#28a745"/>
    <path class="a" d="M1.61,0H6.439a1.61,1.61,0,0,1,1.61,1.61V6.439a1.61,1.61,0,0,1-1.61,1.61H1.61A1.61,1.61,0,0,1,0,6.439V1.61A1.61,1.61,0,0,1,1.61,0Z" transform="translate(9.659 0)" fill="#28a745"/>
    <path class="a" d="M1.61,0H6.439a1.61,1.61,0,0,1,1.61,1.61V6.439a1.61,1.61,0,0,1-1.61,1.61H1.61A1.61,1.61,0,0,1,0,6.439V1.61A1.61,1.61,0,0,1,1.61,0Z" transform="translate(9.659 9.629) " fill="#28a745"/>
    <path class="a" d="M1.61,0H6.439a1.61,1.61,0,0,1,1.61,1.61V6.439a1.61,1.61,0,0,1-1.61,1.61H1.61A1.61,1.61,0,0,1,0,6.439V1.61A1.61,1.61,0,0,1,1.61,0Z" transform="translate(0 9.629)" fill="#28a745"/>
</svg>