<svg xmlns="http://www.w3.org/2000/svg" width="23" height="25" viewBox="0 0 23 25">
<!--    <defs><style>.a{fill:none;}.b{fill:#929daa;}.c{fill:#fff;}.d{fill:#28a745;}</style></defs>-->
    <g transform="translate(-20 -721)">
        <g transform="translate(20 721)" fill="none">
            <rect class="a" width="22" height="22"/>
            <g transform="translate(2.464 2.075)">
                <path class="b" d="M8.654.515,4.4.532a1.523,1.523,0,0,0-1.33.788L.848,5.35l7.378-.017Z" transform="translate(-0.576 -0.495)" fill="#929daa"/>
                <path class="b" d="M16.636,5.318,14.386,1.286A1.537,1.537,0,0,0,13.047.5L8.794.521,9.24,5.334Z" transform="translate(0.597 -0.498)" fill="#929daa"/>
                <path class="b" d="M18.116,5.875V5.831l-8.1.026h-1.3l-8.1-.026v.044H.611V7.925H.619l.031,7.95a1.384,1.384,0,0,0,1.37,1.383h.014l6.8-.017,7.866.017h.014a1.385,1.385,0,0,0,1.37-1.383l.031-7.95h.008V5.875Z" transform="translate(-0.611 0.289)" fill="#929daa"/></g>
            <g transform="translate(10.001 12.001)">
                <rect class="a" width="11.199" height="11.199" transform="translate(0.421 0.421)"/>
            <g transform="translate(-1 -1.001)">
                <path class="c" d="M7,14a7,7,0,1,1,7-7A7.008,7.008,0,0,1,7,14ZM7.011,1.4a5.611,5.611,0,1,0,3.967,1.643A5.576,5.576,0,0,0,7.011,1.4Zm0,8.782a.733.733,0,0,1-.732-.732V6.522a.732.732,0,0,1,1.464,0V9.45A.733.733,0,0,1,7.01,10.182ZM7,5.272a.71.71,0,0,1-.516-.2A.636.636,0,0,1,6.3,4.6a.647.647,0,0,1,.178-.474.723.723,0,0,1,.525-.2A.673.673,0,1,1,7,5.272Z" transform="translate(-0.001 0)" fill="#fff"/>
                <g transform="translate(1.4 1.401)">
                    <path class="d" d="M9.577,1.643a5.61,5.61,0,1,0,0,7.934A5.611,5.611,0,0,0,9.577,1.643ZM6.341,8.049a.732.732,0,1,1-1.463,0V5.122a.732.732,0,0,1,1.463,0ZM5.6,3.871A.653.653,0,0,1,4.9,3.2a.652.652,0,0,1,.7-.676A.673.673,0,1,1,5.6,3.871Z" transform="translate(0 0)" fill="#28a745"/></g></g></g></g></g></svg>