<svg xmlns="http://www.w3.org/2000/svg" width="27.117" height="16.831" viewBox="0 0 27.117 16.831">
  <g id="livestream-multicolor" transform="translate(0 -88)">
    <path id="Path_1874" data-name="Path 1874" d="M25.247,88H1.87A1.87,1.87,0,0,0,0,89.87v13.091c0,.014,0,.027,0,.041a1.87,1.87,0,0,0,1.866,1.829H25.247a1.87,1.87,0,0,0,1.87-1.87V89.87A1.87,1.87,0,0,0,25.247,88Z" fill="#3b7ad9"/>
    <path id="Path_1892" data-name="Path 1892" d="M.684.4V-6.426H1.777V-.632H4.95V.4ZM5.946.4V-6.426H7.039V.4ZM9.993.4,7.913-6.426H9.049l1.565,5.4h.017l1.6-5.4h1.11L11.209.4Zm4.213,0V-6.426H18.7v1.033H15.3v1.788h3.147v.975H15.3v2h3.462V.4Z" transform="translate(4.162 99.961)" fill="#b6d2fe"/>
  </g>
</svg>
