<svg xmlns="http://www.w3.org/2000/svg" width="30" height="30" viewBox="0 0 30 30">

    <g transform="translate(-44.555 -18.548)">
        <g transform="translate(44.783 18.777)">
            <rect class="a" width="30" height="30" transform="translate(-0.228 -0.229)" fill="none"/>
            <g transform="translate(1.929 2.273)">
                <ellipse class="b" cx="11" cy="3.5" rx="11" ry="3.5" transform="translate(-0.157 0.499)" fill="#c1eab7"/>
                <path class="b" d="M8.535,12.835a10.984,10.984,0,0,1,3.333-4.092c-.689.059-1.382.1-2.079.1C5.976,8.841,2.141,7.957,0,6.253V8.841C0,10.892,3.722,12.58,8.535,12.835Z" transform="translate(0 0.584)" fill="#c1eab7"/>
                <path class="b" d="M7.486,16.72A10.882,10.882,0,0,1,7.9,13.759c-3.149-.242-6.118-1.084-7.9-2.506v2.588c0,1.907,3.219,3.5,7.539,3.919C7.506,17.418,7.486,17.071,7.486,16.72Z" transform="translate(0 1.342)" fill="#c1eab7"/>
                <path class="c" d="M17.213,8a9.213,9.213,0,1,0,9.213,9.213A9.224,9.224,0,0,0,17.213,8Zm-.438,8.35h.875a2.444,2.444,0,0,1,.426,4.851v.906a.864.864,0,1,1-1.727,0v-.863H15.2a.864.864,0,1,1,0-1.727h2.453a.72.72,0,0,0,0-1.44h-.875a2.444,2.444,0,0,1-.426-4.851v-.908a.864.864,0,0,1,1.727,0v.864h1.152a.864.864,0,0,1,0,1.727H16.776a.72.72,0,0,0,0,1.44Z" transform="translate(1.213 0.849)" fill="#28a745"/>
            </g>
        </g>
    </g>
</svg>