<svg xmlns="http://www.w3.org/2000/svg" width="19.561" height="18.745" viewBox="0 0 19.561 18.745">

    <path class="a" d="M11.023,17.718a.815.815,0,0,1-.576-1.391L16.076,10.7a.815.815,0,1,1,1.153,1.153L11.6,17.479A.816.816,0,0,1,11.023,17.718Z" transform="translate(-8.579 -9.568)" fill="#929daa"/>
    <path class="a" d="M17.318,13.737a.616.616,0,0,1-.433-.178l-2.852-2.852a.612.612,0,0,1,.433-1.044h2.852a.611.611,0,0,1,.611.611v2.852a.613.613,0,0,1-.378.565A.621.621,0,0,1,17.318,13.737Z" transform="translate(-8.149 -9.662)" fill="#929daa"/>/>
    <path class="a" d="M14.37,20.159v4.686H9.48V20.159A1.018,1.018,0,0,1,10.5,19.141H13.35A1.02,1.02,0,0,1,14.37,20.159Z" transform="translate(-8.664 -8.546)" fill="#929daa" />
    <path class="a" d="M20.2,17.243V25.19h-4.89V17.243a1.018,1.018,0,0,1,1.018-1.018h2.852A1.018,1.018,0,0,1,20.2,17.243Z" transform="translate(-7.977 -8.889)" fill="#929daa"/>
    <path class="a" d="M26.036,14.326V25.533h-4.89V14.326a1.018,1.018,0,0,1,1.018-1.018h2.853A1.018,1.018,0,0,1,26.036,14.326Z" transform="translate(-7.291 -9.233)" fill="#929daa"/>
    <path class="a" d="M27.7,26.561H9.361a.611.611,0,0,1,0-1.223H27.7a.611.611,0,1,1,0,1.223Z" transform="translate(-8.75 -7.816)" fill="#929daa"/>
</svg>