<svg xmlns="http://www.w3.org/2000/svg" width="16" height="16" viewBox="0 0 16 16">
<!--    <defs><style>.a{fill:none;}.b{fill:#929daa;}-->
<!--    </style>-->
<!--    </defs>-->
    <rect class="a" width="16" height="16" fill="none"/>
    <path class="b" d="M10.28,0H1.115A1.116,1.116,0,0,0,0,1.114v11.6a1.115,1.115,0,0,0,1.115,1.115H10.28A1.115,1.115,0,0,0,11.4,12.711V1.114A1.116,1.116,0,0,0,10.28,0ZM3.21,5.206H8.164a.5.5,0,1,1,.045.991h-5a.5.5,0,1,1-.045-.991A.327.327,0,0,1,3.21,5.206Zm-.5,2.973a.5.5,0,0,1,.5-.5H8.164a.5.5,0,0,1,0,.991H3.21A.5.5,0,0,1,2.714,8.179ZM2.759,10.6a.5.5,0,0,1,.5-.5H8.209a.5.5,0,0,1,0,.991H3.254A.5.5,0,0,1,2.759,10.6Z" transform="translate(2.365 1.222)" fill="#929daa"/>
</svg>