<svg xmlns="http://www.w3.org/2000/svg" width="24.939" height="18.002" viewBox="0 0 24.939 18.002">
  <g id="group-product-multicolor" transform="translate(-16.65 -18.833)">
    <g id="Group_5222" data-name="Group 5222" transform="translate(16.65 22.457)">
      <path id="Path_1788" data-name="Path 1788" d="M357.64,621.574a.983.983,0,0,0-.98-.98h-4.9v3.922a1.307,1.307,0,0,1-2.614,0v-3.922h-4.9a.983.983,0,0,0-.98.98v12.418a.982.982,0,0,0,.98.98h12.418a.983.983,0,0,0,.98-.98Z" transform="translate(-343.261 -620.594)" fill="#42526e"/>
      <path id="Path_1792" data-name="Path 1792" d="M440.568,625.823a1.308,1.308,0,0,0,1.307-1.307v-3.922h-2.614v3.922A1.308,1.308,0,0,0,440.568,625.823Z" transform="translate(-433.379 -620.594)" fill="#99aac8"/>
    </g>
    <g id="Group_5223" data-name="Group 5223" transform="translate(32.505 18.833)">
      <path id="Path_1788-2" data-name="Path 1788" d="M352.345,621.213a.621.621,0,0,0-.619-.619h-3.1v2.477a.826.826,0,1,1-1.652,0v-2.477h-3.1a.621.621,0,0,0-.619.619v7.845a.621.621,0,0,0,.619.619h7.845a.621.621,0,0,0,.619-.619Z" transform="translate(-343.261 -620.594)" fill="#42526e"/>
      <path id="Path_1792-2" data-name="Path 1792" d="M440.087,623.9a.826.826,0,0,0,.826-.826v-2.477h-1.652v2.477A.826.826,0,0,0,440.087,623.9Z" transform="translate(-435.545 -620.594)" fill="#99aac8"/>
    </g>
  </g>
</svg>
