<svg xmlns="http://www.w3.org/2000/svg" width="18.355" height="18.394" viewBox="0 0 18.355 18.394">
  <g id="product-multicolor" transform="translate(-22.68 -22.726)">
    <path id="Path_1794" data-name="Path 1794" d="M22.68,29.385V28.273l.436-.736,8.031-4.793,1.467.007,8.126,5.027.3.506v1.49Z" transform="translate(0 -0.001)" fill="#fed5c7"/>
    <path id="Path_1517" data-name="Path 1517" d="M31.169,22.744l-4.458.018a1.6,1.6,0,0,0-1.391.826l-2.331,4.219,7.734-.018Z" transform="translate(-0.022 -0.001)" fill="#f25d27"/>
    <path id="Path_1518" data-name="Path 1518" d="M41.508,27.776l-2.359-4.225a1.612,1.612,0,0,0-1.4-.826l-4.458.024.464,5.045Z" transform="translate(-0.769)" fill="#f25d27"/>
    <path id="Path_1519" data-name="Path 1519" d="M41.035,29.683h-.008v-.045l-8.485.028H31.173l-8.485-.028v.045H22.68v2.156h.008l.032,8.332a1.45,1.45,0,0,0,1.437,1.45h.012L31.3,41.6l8.245.018h.014a1.451,1.451,0,0,0,1.437-1.45l.032-8.332h.008V30.75Z" transform="translate(0 -0.501)" fill="#f25d27"/>
  </g>
</svg>
