<svg xmlns="http://www.w3.org/2000/svg" width="18.632" height="18.631" viewBox="0 0 18.632 18.631">
  <g id="warehouse-multicolor" transform="translate(0 -0.003)">
    <path id="Path_1812" data-name="Path 1812" d="M18.384,6.118,9.65.1a.612.612,0,0,0-.668,0L.248,6.118A.585.585,0,0,0,0,6.6V17.857a.779.779,0,0,0,.776.776H3.882V9.9a.584.584,0,0,1,.582-.582h9.7a.583.583,0,0,1,.582.582v8.734h3.105a.779.779,0,0,0,.776-.776V6.6A.585.585,0,0,0,18.384,6.118Z" transform="translate(0 0)" fill="#42526E"/>
    <path id="Path_1813" data-name="Path 1813" d="M6.5,17.5h8.54v1.941H6.5Z" transform="translate(-1.454 -3.913)" fill="#99AAC8"/>
    <path id="Path_1814" data-name="Path 1814" d="M6.5,21.5h8.54v1.941H6.5Z" transform="translate(-1.454 -4.808)" fill="#99AAC8"/>
    <path id="Path_1815" data-name="Path 1815" d="M6.5,13.5h8.54v1.941H6.5Z" transform="translate(-1.454 -3.019)" fill="#99AAC8"/>
  </g>
</svg>
