<svg xmlns="http://www.w3.org/2000/svg" width="16.092" height="18.391" viewBox="0 0 16.092 18.391">
  <g id="pre-order-multicolor-green" transform="translate(-19.329)">
    <path id="Path_305" data-name="Path 305" d="M20.478,0h9.766l5.177,5.156V17.242a1.149,1.149,0,0,1-1.149,1.149H20.478a1.149,1.149,0,0,1-1.149-1.149V1.149A1.15,1.15,0,0,1,20.478,0Z" transform="translate(0)" fill="#28a745"/>
    <path id="Path_306" data-name="Path 306" d="M208.113,5.354h-4.006A1.15,1.15,0,0,1,202.957,4.2V.193Z" transform="translate(-172.708 -0.182)" fill="#c1eab7"/>
    <g id="edit" transform="translate(23.085 6.761)">
      <g id="Group_4117" data-name="Group 4117">
        <g id="Group_4116" data-name="Group 4116">
          <path id="Path_307" data-name="Path 307" d="M0,72.571v1.585H1.585l4.678-4.678L4.678,67.893Z" transform="translate(0 -66.548)" fill="#c1eab7"/>
          <path id="Path_308" data-name="Path 308" d="M261.025,1.111l-.987-.987a.424.424,0,0,0-.6,0L258.666.9l1.585,1.585.774-.774A.423.423,0,0,0,261.025,1.111Z" transform="translate(-253.54)" fill="#c1eab7"/>
        </g>
      </g>
    </g>
  </g>
</svg>
