<svg id="team-multicolor" xmlns="http://www.w3.org/2000/svg" width="20.789" height="17.635" viewBox="0 0 20.789 17.635">
  <g id="Group_4181" data-name="Group 4181" transform="translate(16.18 9.521)">
    <g id="Group_4180" data-name="Group 4180" transform="translate(0 0)">
      <path id="Path_339" data-name="Path 339" d="M400.1,273.32h-1.608a4.181,4.181,0,0,1,.253,1.437v6.076a1.791,1.791,0,0,1-.1.6H401.3a1.8,1.8,0,0,0,1.8-1.8v-3.312A3,3,0,0,0,400.1,273.32Z" transform="translate(-398.494 -273.32)" fill="#28a745"/>
    </g>
  </g>
  <g id="Group_4183" data-name="Group 4183" transform="translate(0 9.521)">
    <g id="Group_4182" data-name="Group 4182" transform="translate(0 0)">
      <path id="Path_340" data-name="Path 340" d="M4.355,274.758a4.182,4.182,0,0,1,.253-1.437H3a3,3,0,0,0-3,3v3.312a1.8,1.8,0,0,0,1.8,1.8H4.459a1.792,1.792,0,0,1-.1-.6Z" transform="translate(0 -273.321)" fill="#28a745"/>
    </g>
  </g>
  <g id="Group_4185" data-name="Group 4185" transform="translate(5.556 7.957)">
    <g id="Group_4184" data-name="Group 4184" transform="translate(0 0)">
      <path id="Path_341" data-name="Path 341" d="M143.505,234.815H139.83a3,3,0,0,0-3,3v6.076a.6.6,0,0,0,.6.6h8.477a.6.6,0,0,0,.6-.6v-6.076A3,3,0,0,0,143.505,234.815Z" transform="translate(-136.829 -234.815)" fill="#28a745"/>
    </g>
  </g>
  <g id="Group_4187" data-name="Group 4187" transform="translate(6.785 0)">
    <g id="Group_4186" data-name="Group 4186">
      <path id="Path_342" data-name="Path 342" d="M170.723,38.84a3.608,3.608,0,1,0,3.609,3.609A3.613,3.613,0,0,0,170.723,38.84Z" transform="translate(-167.114 -38.84)" fill="#c1eab7"/>
    </g>
  </g>
  <g id="Group_4189" data-name="Group 4189" transform="translate(1.358 3.364)">
    <g id="Group_4188" data-name="Group 4188" transform="translate(0 0)">
      <path id="Path_343" data-name="Path 343" d="M36.142,121.689a2.7,2.7,0,1,0,2.7,2.7A2.7,2.7,0,0,0,36.142,121.689Z" transform="translate(-33.443 -121.689)" fill="#c1eab7"/>
    </g>
  </g>
  <g id="Group_4191" data-name="Group 4191" transform="translate(14.033 3.364)">
    <g id="Group_4190" data-name="Group 4190" transform="translate(0 0)">
      <path id="Path_344" data-name="Path 344" d="M348.306,121.689a2.7,2.7,0,1,0,2.7,2.7A2.7,2.7,0,0,0,348.306,121.689Z" transform="translate(-345.607 -121.689)" fill="#c1eab7"/>
    </g>
  </g>
</svg>
