<svg xmlns="http://www.w3.org/2000/svg" width="18.402" height="21" viewBox="0 0 18.402 21">
  <g id="bag-multicolor" transform="translate(-236.304 -78.313)">
    <g id="Group_4990" data-name="Group 4990" transform="translate(241.588 78.313)">
      <path id="Path_1682" data-name="Path 1682" d="M330.764,80.946v2.127h-2c0-.509.012-1.019,0-1.527a1.417,1.417,0,0,0-.611-1.137,2.119,2.119,0,0,0-1.823-.386,1.672,1.672,0,0,0-1.437,1.689c.011.453,0,.907,0,1.361h-2c0-.509.021-1.02,0-1.528a2.644,2.644,0,0,1,1.249-2.367,4.614,4.614,0,0,1,4.735-.4A3.28,3.28,0,0,1,330.764,80.946Z" transform="translate(-322.876 -78.313)" fill="#b6d2fe"/>
    </g>
    <g id="Group_4991" data-name="Group 4991" transform="translate(236.304 83.074)">
      <path id="Path_1683" data-name="Path 1683" d="M254.582,163.3c-.112-1.019-.21-2.04-.322-3.059-.122-1.11-.252-2.22-.38-3.33-.105-.916-.207-1.832-.317-2.747-.143-1.19-.3-2.379-.439-3.569-.032-.265-.049-.532-.065-.8a.931.931,0,0,0-.991-.8c-.823-.005-1.646,0-2.47,0h-.342v0h-7.477v0H239.06a.955.955,0,0,0-1.09,1.011c-.079.815-.21,1.625-.305,2.438-.075.642-.124,1.287-.2,1.93s-.169,1.278-.244,1.918c-.072.612-.128,1.226-.2,1.838-.078.681-.169,1.36-.246,2.041-.071.622-.127,1.245-.2,1.867-.074.651-.134,1.3-.244,1.95-.1.611.028.994.5,1.147a2.141,2.141,0,0,0,.643.092q8.028.007,16.055,0a1.234,1.234,0,0,0,1.165-.5v-.749C254.664,163.761,254.608,163.534,254.582,163.3Z" transform="translate(-236.304 -149)" fill="#3b7ad9"/>
    </g>
  </g>
</svg>
