<svg xmlns="http://www.w3.org/2000/svg" width="22.66" height="22.246" viewBox="0 0 22.66 22.246"><defs><style>.a{fill:#6b7280;}</style></defs><path class="a" d="M9.55,17.824a1.163,1.163,0,1,1-1.163-1.163A1.163,1.163,0,0,1,9.55,17.824Zm4.723-1.163a1.163,1.163,0,1,0,1.163,1.163A1.163,1.163,0,0,0,14.273,16.661Zm8.387.515v2.211a2.01,2.01,0,0,1-2.01,2.01H19.191c-1.445,4.013-5.136,6.437-7.861,6.437S4.914,25.41,3.469,21.4H2.01A2.01,2.01,0,0,1,0,19.387V17.176a2.01,2.01,0,0,1,1.054-1.768c.021-3.139.936-5.591,2.723-7.286S8.091,5.588,11.33,5.588s5.78.853,7.553,2.534,2.7,4.147,2.723,7.286A2.01,2.01,0,0,1,22.66,17.176Zm-4.254.656c0-.517-.026-1-.066-1.474a8.32,8.32,0,0,0-4.555-1.666,2.964,2.964,0,0,1,.641,1.221c-1.252-.986-3.709-.752-5.568-2.959-.107-.123-.2-.241-.278-.349l0,0h0c-.331-.447-.443-.713-.45-.419a4.837,4.837,0,0,1-3.849,4.793c-.013.279-.023.561-.023.855a9.1,9.1,0,0,0,.473,2.93A6.321,6.321,0,0,0,9.34,22.6a2.1,2.1,0,0,1,1.782-.822c1.078,0,1.952.62,1.952,1.386s-.874,1.386-1.952,1.386A2.052,2.052,0,0,1,9.3,23.662a9.611,9.611,0,0,1-3.528-.792C7.354,25.2,9.8,26.427,11.33,26.427,13.731,26.427,18.405,23.393,18.405,17.832Zm1.99-2.666c-.128-5.478-3.255-8.372-9.066-8.372S2.392,9.688,2.264,15.166h.773a9.652,9.652,0,0,1,1.788-4.532,7.762,7.762,0,0,1,6.5-2.8,7.762,7.762,0,0,1,6.5,2.8,9.653,9.653,0,0,1,1.788,4.532H20.4Z" transform="translate(0 -5.588)"/></svg>