<svg xmlns="http://www.w3.org/2000/svg" width="23.267" height="20.613" viewBox="0 0 23.267 20.613">
<!--    <defs><style>.a{fill:#fff;}</style></defs>-->
    <g transform="translate(-0.359 -120.492)">
        <path class="a" d="M104.008,126.42a5.928,5.928,0,1,0,5.928-5.928A5.928,5.928,0,0,0,104.008,126.42Zm5.928.375a1.948,1.948,0,0,1-.495-3.835v-.5a.411.411,0,1,1,.822,0v.476a1.929,1.929,0,0,1,1.607,1.914.406.406,0,0,1-.812,0,1.123,1.123,0,1,0-1.122,1.124,1.945,1.945,0,0,1,.327,3.86v.49a.411.411,0,0,1-.822,0v-.515a1.966,1.966,0,0,1-1.464-1.889.416.416,0,0,1,.831,0,1.127,1.127,0,0,0,1,1.118.428.428,0,0,1,.064-.005.409.409,0,0,1,.092.011,1.124,1.124,0,0,0-.033-2.248Zm0,0" transform="translate(-97.566 0)" fill="#fff"/>
        <path class="a" d="M82.024,352.918l-.01,0-3.814,1.8a2.944,2.944,0,0,1,.053.641.411.411,0,0,1-.41.4h-.012l-5.581-.154a.411.411,0,0,1,.022-.822l5.13.141a2.118,2.118,0,0,0-2.026-1.76l-3.4-.093a4.472,4.472,0,0,1-1.924-.5l-.345-.179a5.22,5.22,0,0,0-5.328.3l-.136,4.939.583-.312a2.538,2.538,0,0,1,1.892-.207l5.762,1.618a5.386,5.386,0,0,0,3.3-.369l7.983-5.164a1.493,1.493,0,0,0-1.743-.289Zm0,0" transform="translate(-60.141 -217.744)" fill="#fff"/>
        <path class="a" d="M.359,347.9l.2-7.348,2.9.08-.2,7.348Zm0,0" transform="translate(0 -207.144)" fill="#fff"/>
    </g>
</svg>