<svg xmlns="http://www.w3.org/2000/svg" width="145.628" height="117.988" viewBox="0 0 145.628 117.988">
  <g id="Group_5284" data-name="Group 5284" transform="translate(-41.871 -33.925)">
    <path id="Path_355" data-name="Path 355" d="M180.244,85.135C142.1,30.522,107.428,11.451,64.95,68.664s-17.759,82.488,6.07,83.22S218.388,139.748,180.244,85.135Z" fill="#f9fbfd"/>
    <g id="Group_5283" data-name="Group 5283">
      <g id="Group_5630" data-name="Group 5630">
        <path id="Path_1959" data-name="Path 1959" d="M138.884,83.4a1.278,1.278,0,0,1-1.048-1.074c-1.188-8.371-8-14.684-15.859-14.684a15.708,15.708,0,0,0-13.444,7.9,1.277,1.277,0,0,1-1.47.575,11.557,11.557,0,0,0-3.335-.486c-6.186,0-11.553,5-12.486,11.617a1.277,1.277,0,0,1-1.278,1.1h-.251c-6.122,0-11.093,5.393-11.093,12.013s4.972,12.013,11.144,12.013l13.449-.039h.007c8.035.02,30.169.044,32.316-.019a13.6,13.6,0,0,0,8.645-2.7,19.466,19.466,0,0,0,1.973-1.7c.076-.074.151-.147.228-.224a12.882,12.882,0,0,0,1.4-1.641,15.154,15.154,0,0,0,1.454-2.91l.008-.022q.09-.243.171-.488l.016-.051q.076-.231.145-.465c.008-.027.015-.055.023-.082.042-.147.083-.293.12-.441.01-.039.019-.078.028-.117.037-.137.07-.274.1-.412.011-.051.02-.1.03-.151.026-.128.052-.256.075-.384.011-.061.02-.123.03-.185.019-.118.039-.236.056-.354.01-.073.018-.147.027-.22.013-.108.028-.216.039-.324.009-.088.014-.169.022-.264s.016-.176.024-.284.016-.217.016-.325c0-.076.011-.151.011-.226h0c.005-.181.008-.366.008-.555C150.184,90.651,145.427,84.568,138.884,83.4Z" fill="#e3e9ee"/>
        <path id="Path_1960" data-name="Path 1960" d="M149.384,87.279a16.842,16.842,0,0,0-9.157-6.2c-1.712-9.176-9.418-15.987-18.249-15.987a18.134,18.134,0,0,0-15.131,8.332,14.278,14.278,0,0,0-3.131-.345A15.552,15.552,0,0,0,88.892,85.861c-7.144.418-12.828,6.76-12.828,14.5,0,8.038,6.121,14.569,13.649,14.569h18.575c4.6,0,26.257,0,27.166-.029l.315-.009a15.474,15.474,0,0,0,9.455-2.83,17.179,17.179,0,0,0,3.929-3.54,17.5,17.5,0,0,0,3.585-10.768A16.838,16.838,0,0,0,149.384,87.279Zm.793,11.072c0,.075-.007.15-.011.226,0,.108-.008.217-.016.325s-.016.189-.024.284-.013.176-.022.264c-.011.108-.026.216-.039.324-.009.073-.017.147-.027.22-.017.118-.037.236-.056.354-.01.062-.019.124-.03.185-.023.128-.049.256-.075.384-.01.05-.019.1-.03.151-.03.138-.063.275-.1.412-.009.039-.018.078-.028.117-.037.148-.078.294-.12.441-.008.027-.015.055-.023.082q-.069.234-.145.465l-.016.051q-.081.245-.171.488l-.008.022a15.154,15.154,0,0,1-1.454,2.91,12.882,12.882,0,0,1-1.4,1.641c-.077.077-.152.15-.228.224a19.466,19.466,0,0,1-1.973,1.7,13.6,13.6,0,0,1-8.645,2.7c-2.147.063-24.281.039-32.316.019h-.007l-13.449.039c-6.172,0-11.144-5.393-11.144-12.013s4.971-12.013,11.093-12.013h.251a1.277,1.277,0,0,0,1.278-1.1c.933-6.62,6.3-11.617,12.486-11.617a11.557,11.557,0,0,1,3.335.486,1.277,1.277,0,0,0,1.47-.575,15.708,15.708,0,0,1,13.444-7.9c7.859,0,14.671,6.313,15.859,14.684a1.278,1.278,0,0,0,1.048,1.074c6.543,1.163,11.3,7.246,11.3,14.39,0,.189,0,.374-.008.555Z" fill="#90a2b1"/>
      </g>
      <g id="Group_5631" data-name="Group 5631">
        <path id="Path_1961" data-name="Path 1961" d="M127.69,97.511a16.7,16.7,0,1,0,16.7,16.7A16.718,16.718,0,0,0,127.69,97.511Zm5.492,24.646-5.337-5.337-5.336,5.337-2.121-2.122,5.336-5.336-5.336-5.335,2.121-2.122,5.336,5.336,5.336-5.336,2.121,2.122-5.336,5.335,5.337,5.336Z" fill="#fff"/>
        <path id="Path_1962" data-name="Path 1962" d="M135.3,109.364l-2.121-2.121-5.336,5.336-5.336-5.336-2.121,2.121,5.336,5.336-5.336,5.336,2.121,2.121,5.336-5.336,5.337,5.336,2.121-2.121-5.337-5.336Z" fill="#f33240"/>
        <path id="Path_1963" data-name="Path 1963" d="M147.389,114.21a19.711,19.711,0,0,0-19.22-19.675c-.161,0-.317-.024-.479-.024-.089,0-.174.012-.263.013a19.694,19.694,0,1,0,19.962,19.686Zm-19.7,16.7a16.7,16.7,0,1,1,16.7-16.7A16.718,16.718,0,0,1,127.69,130.909Z" fill="#f33240"/>
      </g>
    </g>
  </g>
</svg>
