<svg xmlns="http://www.w3.org/2000/svg" width="16.092" height="18.391" viewBox="0 0 16.092 18.391">
  <g id="receipt-multicolor" transform="translate(-19.329)">
    <path id="Path_305" data-name="Path 305" d="M20.478,0h9.766l5.177,5.156V17.242a1.149,1.149,0,0,1-1.149,1.149H20.478a1.149,1.149,0,0,1-1.149-1.149V1.149A1.15,1.15,0,0,1,20.478,0Z" transform="translate(0)" fill="#28a745"/>
    <path id="Path_306" data-name="Path 306" d="M208.113,5.354h-4.006A1.15,1.15,0,0,1,202.957,4.2V.193Z" transform="translate(-172.708 -0.182)" fill="#c1eab7"/>
    <path id="Path_1816" data-name="Path 1816" d="M.89-1.683a1,1,0,0,0-.048-.325.688.688,0,0,0-.158-.255A1.2,1.2,0,0,0,.4-2.474a3.04,3.04,0,0,0-.424-.189A7.961,7.961,0,0,1-.806-3a2.6,2.6,0,0,1-.6-.411A1.651,1.651,0,0,1-1.8-3.959,1.821,1.821,0,0,1-1.936-4.7a1.819,1.819,0,0,1,.123-.681,1.578,1.578,0,0,1,.352-.536,1.814,1.814,0,0,1,.547-.371A2.293,2.293,0,0,1-.2-6.473v-.94H.5v.954a2.065,2.065,0,0,1,.686.215,1.711,1.711,0,0,1,.523.422,1.857,1.857,0,0,1,.332.613,2.529,2.529,0,0,1,.116.793H.89a1.213,1.213,0,0,0-.218-.789A.719.719,0,0,0,.09-5.467a.885.885,0,0,0-.341.059.637.637,0,0,0-.235.163A.653.653,0,0,0-.622-5a1.012,1.012,0,0,0-.044.3A.928.928,0,0,0-.622-4.4a.646.646,0,0,0,.152.244,1.2,1.2,0,0,0,.286.211,3.923,3.923,0,0,0,.442.2q.426.171.776.352a2.633,2.633,0,0,1,.6.415,1.675,1.675,0,0,1,.389.547,1.809,1.809,0,0,1,.138.738A1.827,1.827,0,0,1,2.035-1a1.559,1.559,0,0,1-.354.532,1.747,1.747,0,0,1-.552.36A2.473,2.473,0,0,1,.411.07V.945h-.7V.075A2.774,2.774,0,0,1-.993-.1a1.844,1.844,0,0,1-.6-.38A1.8,1.8,0,0,1-2.019-1.1a2.339,2.339,0,0,1-.158-.905h1.27a1.445,1.445,0,0,0,.081.521.877.877,0,0,0,.218.334A.771.771,0,0,0-.3-.978a1.259,1.259,0,0,0,.354.051A1.052,1.052,0,0,0,.417-.984a.74.74,0,0,0,.261-.158.646.646,0,0,0,.158-.24A.839.839,0,0,0,.89-1.683Z" transform="translate(27.33 13)" fill="#c1eab7"/>
  </g>
</svg>
