<?xml version="1.0"?>
<svg xmlns="http://www.w3.org/2000/svg" viewBox="0 0 512 512" width="512" height="512"><g id="outline"><path d="M154.733,147.2a11.831,11.831,0,0,1,10.534,0A4.915,4.915,0,0,1,168,151.626a8,8,0,0,0,16,0,20.83,20.83,0,0,0-11.577-18.733A27.494,27.494,0,0,0,168,131.145v-3.519a8,8,0,1,0-16,0v3.519a27.447,27.447,0,0,0-4.422,1.748,20.944,20.944,0,0,0,0,37.466l17.689,8.845a4.944,4.944,0,0,1,0,8.844,11.831,11.831,0,0,1-10.534,0A4.915,4.915,0,0,1,152,183.626a8,8,0,1,0-16,0,20.83,20.83,0,0,0,11.577,18.733A27.494,27.494,0,0,0,152,204.107v3.519a8,8,0,0,0,16,0v-3.519a27.447,27.447,0,0,0,4.422-1.748,20.944,20.944,0,0,0,0-37.466l-17.689-8.845a4.944,4.944,0,0,1,0-8.844Z"/><path d="M46,456H274a30.034,30.034,0,0,0,30-30V368H462a26.03,26.03,0,0,0,26-26V202a26.03,26.03,0,0,0-26-26H288V86a30.034,30.034,0,0,0-30-30H62A30.034,30.034,0,0,0,32,86V221.578L21.71,237.012A33.9,33.9,0,0,0,16,255.872V426A30.034,30.034,0,0,0,46,456Zm210-16H62.084l1.881-180.652L75.313,248H200v94a26.03,26.03,0,0,0,26,26h30ZM80,232V104H240v72H226a26.03,26.03,0,0,0-26,26v30ZM288,426a14.015,14.015,0,0,1-14,14h-2V368h16Zm184-84a10.011,10.011,0,0,1-10,10H226a10.011,10.011,0,0,1-10-10V256H472Zm0-102H216V224H472Zm-10-48a10.011,10.011,0,0,1,10,10v6H216v-6a10.011,10.011,0,0,1,10-10ZM32,255.872a17.939,17.939,0,0,1,3.023-9.984l11.633-17.45A7.993,7.993,0,0,0,48,224V86A14.015,14.015,0,0,1,62,72H258a14.015,14.015,0,0,1,14,14v90H256V96a8,8,0,0,0-8-8H72a8,8,0,0,0-8,8V236.687L50.343,250.343A8,8,0,0,0,48,255.917L46.083,440H46a14.015,14.015,0,0,1-14-14Z"/><path d="M160,264a24,24,0,1,0,24,24A24.027,24.027,0,0,0,160,264Zm0,32a8,8,0,1,1,8-8A8.009,8.009,0,0,1,160,296Z"/><path d="M96,264a24,24,0,1,0,24,24A24.027,24.027,0,0,0,96,264Zm0,32a8,8,0,1,1,8-8A8.009,8.009,0,0,1,96,296Z"/><path d="M160,320a24,24,0,1,0,24,24A24.027,24.027,0,0,0,160,320Zm0,32a8,8,0,1,1,8-8A8.009,8.009,0,0,1,160,352Z"/><path d="M96,320a24,24,0,1,0,24,24A24.027,24.027,0,0,0,96,320Zm0,32a8,8,0,1,1,8-8A8.009,8.009,0,0,1,96,352Z"/><path d="M160,376a24,24,0,1,0,24,24A24.027,24.027,0,0,0,160,376Zm0,32a8,8,0,1,1,8-8A8.009,8.009,0,0,1,160,408Z"/><path d="M96,376a24,24,0,1,0,24,24A24.027,24.027,0,0,0,96,376Zm0,32a8,8,0,1,1,8-8A8.009,8.009,0,0,1,96,408Z"/><path d="M200,400a24,24,0,1,0,24-24A24.027,24.027,0,0,0,200,400Zm32,0a8,8,0,1,1-8-8A8.009,8.009,0,0,1,232,400Z"/><path d="M232,296h40a8,8,0,0,0,0-16H232a8,8,0,0,0,0,16Z"/><path d="M304,296h8a8,8,0,0,0,0-16h-8a8,8,0,0,0,0,16Z"/><path d="M232,328h24a8,8,0,0,0,0-16H232a8,8,0,0,0,0,16Z"/><path d="M288,328h24a8,8,0,0,0,0-16H288a8,8,0,0,0,0,16Z"/><path d="M312,112a40.045,40.045,0,0,1,40,40,8,8,0,0,0,16,0,56.064,56.064,0,0,0-56-56,8,8,0,0,0,0,16Z"/><path d="M312,80a72.081,72.081,0,0,1,72,72,8,8,0,0,0,16,0,88.1,88.1,0,0,0-88-88,8,8,0,0,0,0,16Z"/><path d="M104,152a8,8,0,0,0-8,8v8a8,8,0,0,0,16,0v-8A8,8,0,0,0,104,152Z"/><path d="M104,184a8,8,0,0,0-8,8v16a8,8,0,0,0,16,0V192A8,8,0,0,0,104,184Z"/><path d="M424,336a32,32,0,1,1,32-32A32.036,32.036,0,0,1,424,336Zm0-48a16,16,0,1,0,16,16A16.019,16.019,0,0,0,424,288Z"/></g></svg>
